<?xml version="1.0" encoding="UTF-8"?><svg xmlns="http://www.w3.org/2000/svg" viewBox="0 0 512 512"><defs><style>.a{fill:#35bfe5;}.a,.b,.c{stroke-width:0px;}.b{fill:#0e2328;}.c{fill:#fff;}</style></defs><rect class="b" width="512" height="512"/><path class="c" d="M359.222643,122.596739l-.386244.771402c-4.376705,11.834681-8.621046,23.34279-12.731938,34.531924-4.117401,11.190218-7.975499,21.673046-11.575377,31.444144-12.864302,36.016141-24.373497,66.941677-34.530839,92.793966-10.164936,25.85012-21.028583,46.876533-32.602875,63.081409-11.575377,16.716975-24.632801,28.805535-39.161423,36.26785-14.535132,7.457975-32.735239,11.190218-54.594897,11.190218h-.771402v-52.472727h.771402c6.685488,0,12.665756-.260389,17.940803-.772487,5.268538-.518608,10.092244-1.610072,14.46895-3.278732,4.370196-1.677339,8.421415-3.990462,12.153657-6.945877,3.725733-2.959755,7.263769-6.88512,10.609767-11.767414,3.339489-4.630585,6.685488-10.285366,10.031487-16.977364,3.339489-6.685488,6.812428-14.659902,10.417731-23.921071,3.598793-9.258999,7.58383-19.995707,11.960536-32.216631,4.370196-12.212245,9.260084-26.043242,14.660987-41.475631,4.111977-11.574292,8.488682-23.921071,13.118182-37.040338,4.630585-13.118182,9.646328-27.39401,15.048315-42.826399v-.386244h55.173178Z"/><circle class="a" cx="201.50827" cy="149.313737" r="27.774829"/></svg>