<?xml version="1.0" encoding="UTF-8"?>
<svg id="Calque_1" xmlns="http://www.w3.org/2000/svg" xmlns:xlink="http://www.w3.org/1999/xlink" version="1.1" viewBox="0 0 82 60">
  <!-- Generator: Adobe Illustrator 29.0.0, SVG Export Plug-In . SVG Version: 2.1.0 Build 186)  -->
  <defs>
    <style>
      .st0 {
        fill-opacity: .3;
      }

      .st0, .st1 {
        fill-rule: evenodd;
      }

      .st0, .st2 {
        fill: #fff;
      }

      .st3 {
        fill: url(#Dégradé_sans_nom);
      }

      .st2 {
        fill-opacity: .8;
      }
    </style>
    <linearGradient id="Dégradé_sans_nom" data-name="Dégradé sans nom" x1="-509.4" y1="606.7" x2="-506.8" y2="607" gradientTransform="translate(8696 -3004) scale(17 5)" gradientUnits="userSpaceOnUse">
      <stop offset="0" stop-color="#00a09d"/>
      <stop offset="1" stop-color="#00e2ff"/>
    </linearGradient>
  </defs>
  <g>
    <rect id="path-5" x="8.2" y="16" width="25.8" height="2"/>
    <rect id="path-5-2" class="st2" x="8.2" y="16" width="25.8" height="2"/>
  </g>
  <g>
    <rect id="path-5-3" x="7.9" y="20.2" width="28.8" height="2"/>
    <rect id="path-5-4" class="st2" x="7.9" y="20.2" width="28.8" height="2"/>
  </g>
  <g>
    <rect id="path-5-5" x="8" y="28.6" width="23.3" height="2"/>
    <rect id="path-5-6" class="st2" x="8" y="28.6" width="23.3" height="2"/>
  </g>
  <g>
    <path id="path-7" class="st1" d="M29.3,41.1v1H8.2v-1s21.1,0,21.1,0ZM25.6,38.1v1H8.2v-1h17.4ZM29.3,35.1v1H8.2v-1s21.1,0,21.1,0Z"/>
    <path id="path-7-2" class="st0" d="M29.3,41.1v1H8.2v-1s21.1,0,21.1,0ZM25.6,38.1v1H8.2v-1h17.4ZM29.3,35.1v1H8.2v-1s21.1,0,21.1,0Z"/>
  </g>
  <rect class="st3" x="42.2" y="8.3" width="35" height="43.7"/>
</svg>