<?xml version="1.0" encoding="UTF-8"?>
<svg id="Calque_1" xmlns="http://www.w3.org/2000/svg" xmlns:xlink="http://www.w3.org/1999/xlink" version="1.1" viewBox="0 0 82 60">
  <!-- Generator: Adobe Illustrator 29.0.0, SVG Export Plug-In . SVG Version: 2.1.0 Build 186)  -->
  <defs>
    <style>
      .st0 {
        fill-opacity: .3;
      }

      .st0, .st1 {
        fill-rule: evenodd;
      }

      .st0, .st2 {
        fill: #fff;
      }

      .st3 {
        fill: url(#Dégradé_sans_nom);
      }

      .st2 {
        fill-opacity: .8;
      }
    </style>
    <linearGradient id="Dégradé_sans_nom" data-name="Dégradé sans nom" x1="-456.8" y1="-465.5" x2="-455.8" y2="-465.6" gradientTransform="translate(7768 -2280) scale(17 -5)" gradientUnits="userSpaceOnUse">
      <stop offset="0" stop-color="#00a09d"/>
      <stop offset="1" stop-color="#00e2ff"/>
    </linearGradient>
  </defs>
  <g>
    <rect id="path-5" x="3.2" y="10.8" width="25.8" height="2"/>
    <rect id="path-5-2" class="st2" x="3.2" y="10.8" width="25.8" height="2"/>
  </g>
  <g>
    <rect id="path-5-3" x="2.9" y="15" width="48" height="2"/>
    <rect id="path-5-4" class="st2" x="2.9" y="15" width="48" height="2"/>
  </g>
  <g>
    <rect id="path-5-5" x="3" y="23.4" width="23.3" height="2"/>
    <rect id="path-5-6" class="st2" x="3" y="23.4" width="23.3" height="2"/>
  </g>
  <g>
    <path id="path-7" class="st1" d="M24.3,35.9v1H3.2v-1h21.1ZM20.6,32.9v1H3.2v-1h17.4ZM24.3,29.9v1H3.2v-1h21.1Z"/>
    <path id="path-7-2" class="st0" d="M24.3,35.9v1H3.2v-1h21.1ZM20.6,32.9v1H3.2v-1h17.4ZM24.3,29.9v1H3.2v-1h21.1Z"/>
  </g>
  <g>
    <rect id="path-5-7" x="29.4" y="23.4" width="23.3" height="2"/>
    <rect id="path-5-8" class="st2" x="29.4" y="23.4" width="23.3" height="2"/>
  </g>
  <g>
    <path id="path-7-3" class="st1" d="M50.6,35.9v1h-21v-1h21ZM46.9,32.9v1h-17.3v-1h17.3ZM50.6,29.9v1h-21v-1h21Z"/>
    <path id="path-7-4" class="st0" d="M50.6,35.9v1h-21v-1h21ZM46.9,32.9v1h-17.3v-1h17.3ZM50.6,29.9v1h-21v-1h21Z"/>
  </g>
  <g>
    <rect id="path-5-9" x="55.4" y="23.4" width="23.3" height="2"/>
    <rect id="path-5-10" class="st2" x="55.4" y="23.4" width="23.3" height="2"/>
  </g>
  <g>
    <path id="path-7-5" class="st1" d="M76.7,35.9v1h-21v-1h21ZM73,32.9v1h-17.3v-1h17.3ZM76.7,29.9v1h-21v-1h21Z"/>
    <path id="path-7-6" class="st0" d="M76.7,35.9v1h-21v-1h21ZM73,32.9v1h-17.3v-1h17.3ZM76.7,29.9v1h-21v-1h21Z"/>
  </g>
  <rect class="st3" x="2.9" y="45.4" width="17" height="5"/>
</svg>