<svg preserveAspectRatio="none" width="100%" height="100%" overflow="visible" style="display: block;" viewBox="0 0 10 10" fill="none" xmlns="http://www.w3.org/2000/svg">
<g id="Mail" clip-path="url(#clip0_16526_1357)">
<path id="Vector (Stroke)" d="M8.76789 2.51487C8.95817 2.39374 9.2108 2.44988 9.33199 2.64014C9.45312 2.83041 9.39698 3.08304 9.20672 3.20423L5.53371 5.5436C5.52907 5.54655 5.5245 5.54961 5.51975 5.55238C5.33283 5.66094 5.12034 5.71791 4.90419 5.71793C4.68802 5.71793 4.47556 5.66093 4.28863 5.55238C4.28386 5.5496 4.27892 5.54656 4.27427 5.5436L0.597663 3.20423L0.563753 3.1799C0.401185 3.05166 0.358842 2.81859 0.472397 2.64014C0.585979 2.46171 0.815173 2.40113 1.00019 2.49412L1.03649 2.51487L4.70113 4.84705C4.7629 4.88242 4.83298 4.90091 4.90419 4.90091C4.97521 4.90088 5.04481 4.88226 5.10645 4.84705L8.76789 2.51487Z" fill="var(--fill-0, #0F00A2)"/>
<path id="Vector (Stroke)_2" d="M8.57875 2.4511C8.57875 2.22548 8.39585 2.04259 8.17024 2.04259H1.63406C1.40844 2.04259 1.22554 2.22548 1.22554 2.4511V7.35324C1.22554 7.57885 1.40844 7.76175 1.63406 7.76175H8.17024C8.39585 7.76175 8.57875 7.57885 8.57875 7.35324V2.4511ZM9.39577 7.35324C9.39577 8.03008 8.84708 8.57877 8.17024 8.57877H1.63406C0.957212 8.57877 0.408522 8.03008 0.408522 7.35324V2.4511C0.408522 1.77425 0.957212 1.22556 1.63406 1.22556H8.17024C8.84708 1.22556 9.39577 1.77425 9.39577 2.4511V7.35324Z" fill="var(--fill-0, #0F00A2)"/>
</g>
<defs>
<clipPath id="clip0_16526_1357">
<rect width="9.80428" height="9.80428" fill="white"/>
</clipPath>
</defs>
</svg>
