<svg preserveAspectRatio="none" width="100%" height="100%" overflow="visible" style="display: block;" viewBox="0 0 8 8" fill="none" xmlns="http://www.w3.org/2000/svg">
<g id="Telephone" clip-path="url(#clip0_16526_1347)">
<path id="Vector (Stroke)" d="M2.496 1.24768C2.496 1.16494 2.46311 1.08561 2.40461 1.02711C2.3534 0.975901 2.28625 0.944314 2.21481 0.937235L2.18404 0.935712H1.24814C1.1654 0.935712 1.08607 0.968603 1.02757 1.02711C0.969064 1.08561 0.936173 1.16494 0.936173 1.24768C0.936173 2.65423 1.49502 4.00308 2.4896 4.99767C3.48419 5.99225 4.83304 6.5511 6.23959 6.5511C6.32233 6.5511 6.40166 6.51821 6.46016 6.4597C6.51867 6.4012 6.55156 6.32187 6.55156 6.23913V5.30323C6.55156 5.2205 6.51867 5.14117 6.46016 5.08266C6.40166 5.02416 6.32233 4.99127 6.23959 4.99127H5.30369C5.25526 4.99127 5.20748 5.00251 5.16416 5.02417C5.12084 5.04583 5.08324 5.07743 5.05418 5.11618L5.05266 5.11831L4.94177 5.26271C4.85589 5.37551 4.73443 5.45591 4.5969 5.49029C4.45935 5.52465 4.31415 5.51105 4.18531 5.4519C4.1829 5.4508 4.18038 5.44972 4.178 5.44855C3.24962 4.99292 2.49827 4.24255 2.04146 3.31476L2.04085 3.31354C1.97773 3.18403 1.96136 3.03666 1.99454 2.89647C2.02775 2.75624 2.10851 2.63175 2.22303 2.54429L2.22516 2.54276L2.37109 2.43309C2.40984 2.40403 2.44144 2.36643 2.4631 2.32311C2.48476 2.27979 2.496 2.23201 2.496 2.18358V1.24768ZM3.11993 2.18358C3.11993 2.32887 3.0862 2.47222 3.02123 2.60217C2.95625 2.73212 2.86175 2.84524 2.74551 2.93242L2.60141 3.03996C2.99614 3.84124 3.64455 4.48952 4.44548 4.88464L4.55485 4.74176L4.58898 4.6991C4.67078 4.60233 4.77142 4.52288 4.8851 4.46604C5.01505 4.40107 5.1584 4.36734 5.30369 4.36734H6.23959C6.48781 4.36734 6.72579 4.46601 6.9013 4.64152C7.07682 4.81704 7.17549 5.05502 7.17549 5.30323V6.23913C7.17549 6.48735 7.07682 6.72533 6.9013 6.90084C6.72579 7.07635 6.48781 7.17503 6.23959 7.17503C4.66756 7.17503 3.16006 6.5504 2.04847 5.4388C0.936872 4.32721 0.312241 2.81971 0.312241 1.24768C0.312241 0.999462 0.410915 0.761484 0.58643 0.585969C0.761945 0.410454 0.999924 0.31178 1.24814 0.31178H2.18404C2.43225 0.31178 2.67023 0.410454 2.84575 0.585969C3.02126 0.761484 3.11993 0.999462 3.11993 1.24768V2.18358Z" fill="var(--fill-0, white)"/>
</g>
<defs>
<clipPath id="clip0_16526_1347">
<rect width="7.48718" height="7.48718" fill="white"/>
</clipPath>
</defs>
</svg>
