<svg preserveAspectRatio="none" width="100%" height="100%" overflow="visible" style="display: block;" viewBox="0 0 11 11" fill="none" xmlns="http://www.w3.org/2000/svg">
<g id="Telephone" clip-path="url(#clip0_16526_1333)">
<path id="Vector (Stroke)" d="M3.48763 1.74308C3.48763 1.62747 3.44167 1.51663 3.35993 1.43488C3.28838 1.36333 3.19455 1.3192 3.09473 1.30931L3.05173 1.30718H1.74404C1.62843 1.30718 1.51759 1.35314 1.43585 1.43488C1.3541 1.51663 1.30814 1.62747 1.30814 1.74308C1.30814 3.7084 2.089 5.59309 3.47869 6.98279C4.86838 8.37248 6.75308 9.15333 8.7184 9.15333C8.83401 9.15333 8.94485 9.10738 9.02659 9.02563C9.10834 8.94388 9.1543 8.83304 9.1543 8.71744V7.40974C9.1543 7.29414 9.10834 7.1833 9.02659 7.10155C8.94485 7.0198 8.83401 6.97385 8.7184 6.97385H7.41071C7.34304 6.97385 7.27627 6.98956 7.21575 7.01982C7.15522 7.05008 7.10268 7.09424 7.06207 7.14837L7.05995 7.15135L6.905 7.35313C6.78501 7.51073 6.61529 7.62308 6.42313 7.67111C6.23094 7.71912 6.02806 7.70012 5.84803 7.61748C5.84466 7.61593 5.84114 7.61443 5.83782 7.61279C4.54063 6.97615 3.4908 5.92769 2.85251 4.63132L2.85166 4.62962C2.76347 4.44867 2.7406 4.24275 2.78696 4.04686C2.83336 3.85093 2.9462 3.67698 3.10622 3.55478L3.1092 3.55265L3.3131 3.3994C3.36724 3.3588 3.41139 3.30626 3.44166 3.24573C3.47192 3.1852 3.48763 3.11844 3.48763 3.05077V1.74308ZM4.35943 3.05077C4.35943 3.25378 4.31229 3.45407 4.2215 3.63565C4.13071 3.81723 3.99867 3.97529 3.83626 4.09709L3.63492 4.24736C4.18645 5.36696 5.09245 6.27278 6.21156 6.82486L6.36438 6.62521L6.41206 6.56562C6.52636 6.43039 6.66698 6.31939 6.82582 6.23997C7.0074 6.14918 7.20769 6.10205 7.41071 6.10205H8.7184C9.06522 6.10205 9.39774 6.23992 9.64298 6.48516C9.88822 6.7304 10.0261 7.06292 10.0261 7.40974V8.71744C10.0261 9.06426 9.88822 9.39678 9.64298 9.64201C9.39774 9.88725 9.06522 10.0251 8.7184 10.0251C6.52186 10.0251 4.41549 9.15236 2.8623 7.59917C1.30912 6.04599 0.436348 3.93961 0.436348 1.74308C0.436348 1.39625 0.574221 1.06374 0.819461 0.818497C1.0647 0.573257 1.39722 0.435384 1.74404 0.435384H3.05173C3.39855 0.435384 3.73107 0.573257 3.97631 0.818497C4.22155 1.06374 4.35943 1.39625 4.35943 1.74308V3.05077Z" fill="var(--fill-0, #0F00A2)"/>
</g>
<defs>
<clipPath id="clip0_16526_1333">
<rect width="10.4615" height="10.4615" fill="white"/>
</clipPath>
</defs>
</svg>
