<svg preserveAspectRatio="none" width="100%" height="100%" overflow="visible" style="display: block;" viewBox="0 0 18 18" fill="none" xmlns="http://www.w3.org/2000/svg">
<g id="Conseil" clip-path="url(#clip0_16526_1329)">
<path id="Vector (Stroke)" d="M9.75009 2.99995C9.75009 2.80104 9.67102 2.61033 9.53036 2.46968C9.38971 2.32903 9.199 2.24995 9.00009 2.24995H3.00009C2.80118 2.24995 2.61047 2.32903 2.46982 2.46968C2.32917 2.61033 2.25009 2.80104 2.25009 2.99995V9.43941L3.96982 7.71968L4.02475 7.66988C4.15822 7.5605 4.32602 7.49995 4.50009 7.49995H9.00009C9.199 7.49995 9.38971 7.42088 9.53036 7.28023C9.67102 7.13957 9.75009 6.94887 9.75009 6.74995V2.99995ZM11.2501 6.74995C11.2501 7.34669 11.0129 7.91882 10.5909 8.34077C10.169 8.76273 9.59683 8.99995 9.00009 8.99995H4.81064L2.03036 11.7802C1.81587 11.9947 1.49324 12.0589 1.21298 11.9428C0.932781 11.8267 0.750092 11.5533 0.750092 11.25V2.99995C0.750092 2.40322 0.987314 1.83109 1.40927 1.40913C1.83123 0.987177 2.40335 0.749954 3.00009 0.749954H9.00009C9.59683 0.749954 10.169 0.987177 10.5909 1.40913C11.0129 1.83109 11.2501 2.40322 11.2501 2.99995V6.74995Z" fill="var(--fill-0, #0F00A2)"/>
<path id="Vector (Stroke)_2" d="M15.75 8.25005C15.75 8.05113 15.6709 7.86042 15.5303 7.71977C15.3896 7.57912 15.1989 7.50005 15 7.50005H13.5C13.0858 7.50005 12.75 7.16426 12.75 6.75005C12.75 6.33583 13.0858 6.00005 13.5 6.00005H15C15.5967 6.00005 16.1689 6.23727 16.5908 6.65923C17.0128 7.08118 17.25 7.65331 17.25 8.25005V16.5C17.25 16.8034 17.0673 17.0768 16.7871 17.1929C16.5069 17.309 16.1842 17.2448 15.9697 17.0303L13.1895 14.25H9C8.40326 14.25 7.83114 14.0128 7.40918 13.5909C6.98722 13.1689 6.75 12.5968 6.75 12V11.25C6.75 10.8358 7.08579 10.5 7.5 10.5C7.91421 10.5 8.25 10.8358 8.25 11.25V12C8.25 12.199 8.32907 12.3897 8.46973 12.5303C8.61038 12.671 8.80109 12.75 9 12.75H13.5C13.6989 12.75 13.8896 12.8291 14.0303 12.9698L15.75 14.6895V8.25005Z" fill="var(--fill-0, #0F00A2)"/>
</g>
<defs>
<clipPath id="clip0_16526_1329">
<rect width="18" height="18" fill="white"/>
</clipPath>
</defs>
</svg>
