<?xml version="1.0" encoding="utf-8"?>
<!-- Generator: Adobe Illustrator 28.2.0, SVG Export Plug-In . SVG Version: 6.00 Build 0)  -->
<svg version="1.1" id="Calque_1" xmlns="http://www.w3.org/2000/svg" xmlns:xlink="http://www.w3.org/1999/xlink" x="0px" y="0px"
	 viewBox="0 0 82 60" style="enable-background:new 0 0 82 60;" xml:space="preserve">
<style type="text/css">
	.st0{fill:none;}
	.st1{opacity:0.4;}
	.st2{fill-rule:evenodd;clip-rule:evenodd;fill:url(#SVGID_1_);}
	.st3{fill-rule:evenodd;clip-rule:evenodd;}
	.st4{fill-rule:evenodd;clip-rule:evenodd;fill:#FFFFFF;fill-opacity:0.78;}
	.st5{fill-rule:evenodd;clip-rule:evenodd;fill:#FFFFFF;fill-opacity:0.348;}
</style>
<g>
	<g>
		<rect x="0.1" y="12" class="st0" width="82" height="43.9"/>
		<g class="st1">
			<g>
				
					<linearGradient id="SVGID_1_" gradientUnits="userSpaceOnUse" x1="30.6702" y1="40.01" x2="31.5765" y2="39.5248" gradientTransform="matrix(82 0 0 -60 -2511 2420)">
					<stop  offset="0" style="stop-color:#00A09D"/>
					<stop  offset="1" style="stop-color:#00E2FF"/>
				</linearGradient>
				<rect x="0.1" y="12" class="st2" width="82" height="43.9"/>
			</g>
		</g>
	</g>
</g>
<g>
	<g>
		<rect id="path-5_00000042018537258113743360000012973220856030366862_" x="15.4" y="17.6" class="st3" width="21.6" height="2"/>
	</g>
	<g>
		<rect id="path-5_00000101809160443840956370000011147558507046496690_" x="15.4" y="17.6" class="st4" width="21.6" height="2"/>
	</g>
</g>
<g>
	<g>
		<rect id="path-5_00000111886725436669335320000014180551436067287690_" x="16.2" y="6" class="st3" width="49.2" height="2"/>
	</g>
	<g>
		<rect id="path-5_00000119833762379966536240000000970824848505965225_" x="16.2" y="6" class="st4" width="49.2" height="2"/>
	</g>
</g>
<g>
	<g>
		<path id="path-7_00000062154098944415143150000010025342287952217509_" class="st3" d="M35.5,30.1v1H15.6v-1H35.5z M32,27.1v1
			H15.6v-1H32z M35.5,24.1v1H15.6v-1H35.5z"/>
	</g>
	<g>
		<path id="path-7_00000038403849094049921330000016758287864275910800_" class="st5" d="M35.5,30.1v1H15.6v-1H35.5z M32,27.1v1
			H15.6v-1H32z M35.5,24.1v1H15.6v-1H35.5z"/>
	</g>
</g>
<g>
	<g>
		<rect id="path-5_00000080206784830742774420000000912096508939472553_" x="43.3" y="17.7" class="st3" width="21.6" height="2"/>
	</g>
	<g>
		<rect id="path-5_00000043426164496962418820000013039985169303013780_" x="43.3" y="17.7" class="st4" width="21.6" height="2"/>
	</g>
</g>
<g>
	<g>
		<path id="path-7_00000139293129229343680600000013723102263896539008_" class="st3" d="M63.4,30.2v1H43.5v-1H63.4z M59.9,27.2v1
			H43.5v-1H59.9z M63.4,24.2v1H43.5v-1H63.4z"/>
	</g>
	<g>
		<path id="path-7_00000121239811267571785310000000542056761322243722_" class="st5" d="M63.4,30.2v1H43.5v-1H63.4z M59.9,27.2v1
			H43.5v-1H59.9z M63.4,24.2v1H43.5v-1H63.4z"/>
	</g>
</g>
<g>
	<g>
		<rect id="path-5_00000178187461482927500140000015381265848025371804_" x="15.5" y="35.8" class="st3" width="21.6" height="2"/>
	</g>
	<g>
		<rect id="path-5_00000035531743073562837560000001881007620011487912_" x="15.5" y="35.8" class="st4" width="21.6" height="2"/>
	</g>
</g>
<g>
	<g>
		<path id="path-7_00000111191247122056094580000000347682959968847250_" class="st3" d="M35.6,48.3v1H15.8v-1H35.6z M32.1,45.3v1
			H15.8v-1H32.1z M35.6,42.3v1H15.8v-1H35.6z"/>
	</g>
	<g>
		<path id="path-7_00000072279149556586020320000015433462396710826396_" class="st5" d="M35.6,48.3v1H15.8v-1H35.6z M32.1,45.3v1
			H15.8v-1H32.1z M35.6,42.3v1H15.8v-1H35.6z"/>
	</g>
</g>
<g>
	<g>
		<rect id="path-5_00000176044806192507604130000007935294061601986198_" x="43.4" y="35.9" class="st3" width="21.6" height="2"/>
	</g>
	<g>
		<rect id="path-5_00000085224028382535290870000013201516190982610583_" x="43.4" y="35.9" class="st4" width="21.6" height="2"/>
	</g>
</g>
<g>
	<g>
		<path id="path-7_00000025410231804739254960000015695266815154270373_" class="st3" d="M63.5,48.4v1H43.7v-1H63.5z M60,45.4v1
			H43.7v-1H60z M63.5,42.4v1H43.7v-1H63.5z"/>
	</g>
	<g>
		<path id="path-7_00000101799066884082725550000017714084808629889452_" class="st5" d="M63.5,48.4v1H43.7v-1H63.5z M60,45.4v1
			H43.7v-1H60z M63.5,42.4v1H43.7v-1H63.5z"/>
	</g>
</g>
</svg>
