<?xml version="1.0" encoding="utf-8"?>
<!-- Generator: Adobe Illustrator 28.2.0, SVG Export Plug-In . SVG Version: 6.00 Build 0)  -->
<svg version="1.1" id="Calque_1" xmlns="http://www.w3.org/2000/svg" xmlns:xlink="http://www.w3.org/1999/xlink" x="0px" y="0px"
	 viewBox="0 0 82 60" style="enable-background:new 0 0 82 60;" xml:space="preserve">
<style type="text/css">
	.st0{fill-rule:evenodd;clip-rule:evenodd;}
	.st1{fill-rule:evenodd;clip-rule:evenodd;fill:#FFFFFF;fill-opacity:0.78;}
	.st2{fill-rule:evenodd;clip-rule:evenodd;fill:#FFFFFF;fill-opacity:0.348;}
	.st3{fill-rule:evenodd;clip-rule:evenodd;fill:#FFFFFF;}
	.st4{fill-rule:evenodd;clip-rule:evenodd;fill:#79D1F2;}
	.st5{fill-rule:evenodd;clip-rule:evenodd;fill:#F3EC60;}
	.st6{filter:url(#Adobe_OpacityMaskFilter);}
	
		.st7{mask:url(#mask-2_00000014603608823877965250000004938890755575577003_);fill-rule:evenodd;clip-rule:evenodd;fill:url(#SVGID_1_);}
</style>
<g>
	<g>
		<rect id="path-5_00000042018537258113743360000012973220856030366862_" x="6" y="14.6" class="st0" width="22.2" height="1.9"/>
	</g>
	<g>
		<rect id="path-5_00000101809160443840956370000011147558507046496690_" x="6" y="14.6" class="st1" width="22.2" height="1.9"/>
	</g>
</g>
<g>
	<g>
		<rect id="path-5_00000054957561177598858980000003289475161926826681_" x="5.8" y="36.5" class="st0" width="13.9" height="1.5"/>
	</g>
	<g>
		<rect id="path-5_00000088094463304604531900000017432616616376587184_" x="5.8" y="36.5" class="st1" width="13.9" height="1.5"/>
	</g>
</g>
<g>
	<g>
		<rect id="path-5_00000064316461789120301280000000439637556436283310_" x="5.6" y="44.3" class="st0" width="13.9" height="1.5"/>
	</g>
	<g>
		<rect id="path-5_00000011731154619407569510000016923142553469055126_" x="5.6" y="44.3" class="st1" width="13.9" height="1.5"/>
	</g>
</g>
<g>
	<g>
		
			<rect id="path-5_00000034091359704594158060000004176192650253351340_" x="21.2" y="36.5" class="st0" width="13.9" height="1.5"/>
	</g>
	<g>
		
			<rect id="path-5_00000074444145592556506950000002836231067338244270_" x="21.2" y="36.5" class="st1" width="13.9" height="1.5"/>
	</g>
</g>
<g>
	<g>
		
			<rect id="path-5_00000092446444853979854210000001476535700969902782_" x="36.7" y="36.5" class="st0" width="13.9" height="1.5"/>
	</g>
	<g>
		
			<rect id="path-5_00000166655468585022959970000003305624468920169871_" x="36.7" y="36.5" class="st1" width="13.9" height="1.5"/>
	</g>
</g>
<g>
	<g>
		<path id="path-7_00000062154098944415143150000010025342287952217509_" class="st0" d="M49.7,29.3v1.2H6v-1.2H49.7z M42,25.6v1.2
			H6v-1.2H42z M49.7,21.9v1.2H6v-1.2H49.7z"/>
	</g>
	<g>
		<path id="path-7_00000038403849094049921330000016758287864275910800_" class="st2" d="M49.7,29.3v1.2H6v-1.2H49.7z M42,25.6v1.2
			H6v-1.2H42z M49.7,21.9v1.2H6v-1.2H49.7z"/>
	</g>
</g>
<g transform="translate(29)">
	<rect x="26" y="14.4" class="st3" width="24" height="19"/>
	<g transform="translate(.462 .442)">
		<g>
			
				<rect id="path-1_00000101090926776044421710000012121937786567652758_" x="26" y="14.4" class="st4" width="23.1" height="18.1"/>
		</g>
		<ellipse class="st5" cx="43.8" cy="19.1" rx="3.5" ry="3.3"/>
		<defs>
			<filter id="Adobe_OpacityMaskFilter" filterUnits="userSpaceOnUse" x="8.9" y="24.1" width="34.6" height="20.8">
				<feColorMatrix  type="matrix" values="1 0 0 0 0  0 1 0 0 0  0 0 1 0 0  0 0 0 1 0"/>
			</filter>
		</defs>
		
			<mask maskUnits="userSpaceOnUse" x="8.9" y="24.1" width="34.6" height="20.8" id="mask-2_00000014603608823877965250000004938890755575577003_">
			<g class="st6">
				
					<rect id="path-1_00000072963200749922186660000011265107757100377994_" x="26" y="14.4" class="st3" width="23.1" height="18.1"/>
			</g>
		</mask>
		
			<linearGradient id="SVGID_1_" gradientUnits="userSpaceOnUse" x1="2.2576" y1="-1.6581" x2="1.8724" y2="-1.5528" gradientTransform="matrix(34.616 0 0 20.768 -38.5558 66.7209)">
			<stop  offset="0" style="stop-color:#00AA89"/>
			<stop  offset="1" style="stop-color:#009989"/>
		</linearGradient>
		<ellipse class="st7" cx="26.2" cy="34.5" rx="17.3" ry="10.4"/>
	</g>
	<path class="st3" d="M50,14.4v19H26v-19C26,14.4,50,14.4,50,14.4z M49,15.4H27v17h22C49,32.4,49,15.4,49,15.4z"/>
</g>
</svg>
