<?xml version="1.0" encoding="UTF-8"?>
<svg xmlns="http://www.w3.org/2000/svg" xmlns:xlink="http://www.w3.org/1999/xlink" version="1.1" viewBox="0 0 82 60">
  <defs>
    <style>
      .cls-1 {
        fill-opacity: .3;
      }

      .cls-1, .cls-2 {
        fill-rule: evenodd;
      }

      .cls-1, .cls-3 {
        fill: #fff;
      }

      .cls-4 {
        fill: url(#Dégradé_sans_nom_7);
      }

      .cls-5 {
        fill: url(#Dégradé_sans_nom_7-2);
      }

      .cls-3 {
        fill-opacity: .8;
      }

      .cls-6 {
        fill: url(#Dégradé_sans_nom);
        isolation: isolate;
        opacity: .4;
      }
    </style>
    <linearGradient id="Dégradé_sans_nom" data-name="Dégradé sans nom" x1="-4942.2" y1="-176.2" x2="-4939.8" y2="-175.4" gradientTransform="translate(148272 3019) scale(30 17)" gradientUnits="userSpaceOnUse">
      <stop offset="0" stop-color="#00e2ff"/>
      <stop offset="1" stop-color="#00a09d"/>
    </linearGradient>
    <linearGradient id="Dégradé_sans_nom_7" data-name="Dégradé sans nom 7" x1="-1265.9" y1="-111.7" x2="-1265.2" y2="-111.8" gradientTransform="translate(21528 -520) scale(17 -5)" gradientUnits="userSpaceOnUse">
      <stop offset="0" stop-color="#00a09d"/>
      <stop offset="1" stop-color="#00e2ff"/>
    </linearGradient>
    <linearGradient id="Dégradé_sans_nom_7-2" data-name="Dégradé sans nom 7" x1="-1265.1" y1="-111.7" x2="-1264.4" y2="-111.8" xlink:href="#Dégradé_sans_nom_7"/>
  </defs>
  <!-- Generator: Adobe Illustrator 28.7.1, SVG Export Plug-In . SVG Version: 1.2.0 Build 142)  -->
  <g>
    <g id="Calque_1">
      <rect class="cls-6" x="3.3" y="14.2" width="75.4" height="31.7"/>
      <g>
        <rect id="path-5" x="7" y="19.4" width="45.6" height="2"/>
        <rect id="path-5-2" class="cls-3" x="7" y="19.4" width="45.6" height="2"/>
      </g>
      <g>
        <path id="path-7" class="cls-2" d="M52.6,31.4v1H7v-1h45.6ZM44.7,28.4v1H7v-1h37.7ZM52.6,25.4v1H7v-1h45.6Z"/>
        <path id="path-7-2" class="cls-1" d="M52.6,31.4v1H7v-1h45.6ZM44.7,28.4v1H7v-1h37.7ZM52.6,25.4v1H7v-1h45.6Z"/>
      </g>
      <rect class="cls-4" x="7.1" y="36.4" width="11.4" height="5"/>
      <rect class="cls-5" x="21.5" y="36.4" width="11.4" height="5"/>
    </g>
  </g>
</svg>