<?xml version="1.0" encoding="UTF-8"?>
<svg xmlns="http://www.w3.org/2000/svg" xmlns:xlink="http://www.w3.org/1999/xlink" version="1.1" viewBox="0 0 82 60">
  <defs>
    <style>
      .cls-1 {
        fill: none;
      }

      .cls-2 {
        opacity: .7;
      }

      .cls-2, .cls-3, .cls-4, .cls-5 {
        fill-rule: evenodd;
      }

      .cls-3 {
        fill: #fff;
      }

      .cls-3, .cls-5 {
        fill-opacity: .3;
      }

      .cls-6 {
        fill: url(#Dégradé_sans_nom_7);
      }

      .cls-5 {
        fill: #1d1d1b;
      }

      .cls-7 {
        opacity: .7;
      }

      .cls-8 {
        fill: url(#Dégradé_sans_nom_5);
        isolation: isolate;
        opacity: .4;
      }
    </style>
    <linearGradient id="Dégradé_sans_nom_7" data-name="Dégradé sans nom 7" x1="-2149.2" y1="-588.8" x2="-2148.2" y2="-588.9" gradientTransform="translate(36568 -2920) scale(17 -5)" gradientUnits="userSpaceOnUse">
      <stop offset="0" stop-color="#00a09d"/>
      <stop offset="1" stop-color="#00e2ff"/>
    </linearGradient>
    <linearGradient id="Dégradé_sans_nom_5" data-name="Dégradé sans nom 5" x1="-4942.3" y1="-175.6" x2="-4939.8" y2="-174.9" gradientTransform="translate(148272 3019) scale(30 17)" gradientUnits="userSpaceOnUse">
      <stop offset="0" stop-color="#00e2ff"/>
      <stop offset="1" stop-color="#00a09d"/>
    </linearGradient>
  </defs>
  <!-- Generator: Adobe Illustrator 28.7.1, SVG Export Plug-In . SVG Version: 1.2.0 Build 142)  -->
  <g>
    <g id="Calque_1">
      <g>
        <path id="path-7" class="cls-4" d="M62.9,17.7v1.2H19.1v-1.2h43.7ZM58.1,14v1.2H22.1v-1.2h36ZM62.9,10.3v1.2H19.1v-1.2h43.7Z"/>
        <path id="path-7-2" class="cls-3" d="M62.9,17.7v1.2H19.1v-1.2h43.7ZM58.1,14v1.2H22.1v-1.2h36ZM62.9,10.3v1.2H19.1v-1.2h43.7Z"/>
      </g>
      <rect class="cls-6" x="32.5" y="22" width="17" height="5"/>
      <rect class="cls-8" y="30.5" width="82" height="18.6"/>
      <path id="path-7-2" data-name="path-7" class="cls-2" d="M69.9,40.9v1H12.1v-1h57.8ZM69.9,34.9v1H12.1v-1h57.8Z"/>
      <path id="path-7-2-2" data-name="path-7-2" class="cls-5" d="M69.9,44.8v1H17.1v-1h52.9ZM69.9,38.8v1H17.1v-1h52.9ZM67.2,42.7v1H14.4v-1h52.9ZM67.2,36.7v1H14.4v-1h52.9Z"/>
      <line class="cls-1" x1="-4.6" y1="27.8" x2="-4.8" y2="27.8"/>
      <g class="cls-7">
        <path d="M12.1,37h.1c0-.1.6.5.6.5v-1.3h.2v1.3l.6-.6h.1c0,.1-.8.9-.8.9h0l-.8-.8Z"/>
      </g>
      <g class="cls-7">
        <path d="M12.1,43.1h.1c0-.1.6.5.6.5v-1.3h.2v1.3l.6-.6h.1c0,.1-.8.9-.8.9h0l-.8-.8Z"/>
      </g>
    </g>
  </g>
</svg>