<?xml version="1.0" encoding="UTF-8"?>
<svg xmlns="http://www.w3.org/2000/svg" xmlns:xlink="http://www.w3.org/1999/xlink" version="1.1" viewBox="0 0 82 60">
  <defs>
    <style>
      .cls-1 {
        fill-opacity: .3;
      }

      .cls-1, .cls-2 {
        fill-rule: evenodd;
      }

      .cls-1, .cls-3 {
        fill: #fff;
      }

      .cls-4 {
        fill: url(#Dégradé_sans_nom_7);
      }

      .cls-5 {
        fill: url(#Dégradé_sans_nom_7-2);
      }

      .cls-3 {
        fill-opacity: .8;
      }

      .cls-6 {
        fill: url(#Dégradé_sans_nom-3);
      }

      .cls-6, .cls-7, .cls-8, .cls-9, .cls-10, .cls-11 {
        isolation: isolate;
        opacity: .4;
      }

      .cls-7 {
        fill: url(#Dégradé_sans_nom-2);
      }

      .cls-8 {
        fill: url(#Dégradé_sans_nom-5);
      }

      .cls-9 {
        fill: url(#Dégradé_sans_nom-4);
      }

      .cls-10 {
        fill: url(#Dégradé_sans_nom-6);
      }

      .cls-11 {
        fill: url(#Dégradé_sans_nom);
      }
    </style>
    <linearGradient id="Dégradé_sans_nom" data-name="Dégradé sans nom" x1="-4942.2" y1="-175.9" x2="-4941.2" y2="-175.5" gradientTransform="translate(148272 3019) scale(30 17)" gradientUnits="userSpaceOnUse">
      <stop offset="0" stop-color="#00e2ff"/>
      <stop offset="1" stop-color="#00a09d"/>
    </linearGradient>
    <linearGradient id="Dégradé_sans_nom-2" data-name="Dégradé sans nom" y1="-175.4" y2="-175" xlink:href="#Dégradé_sans_nom"/>
    <linearGradient id="Dégradé_sans_nom-3" data-name="Dégradé sans nom" y1="-174.9" y2="-174.5" xlink:href="#Dégradé_sans_nom"/>
    <linearGradient id="Dégradé_sans_nom-4" data-name="Dégradé sans nom" x1="-4940.9" y1="-175.9" x2="-4939.9" y2="-175.5" xlink:href="#Dégradé_sans_nom"/>
    <linearGradient id="Dégradé_sans_nom-5" data-name="Dégradé sans nom" x1="-4940.9" y1="-175.4" x2="-4939.9" y2="-175" xlink:href="#Dégradé_sans_nom"/>
    <linearGradient id="Dégradé_sans_nom-6" data-name="Dégradé sans nom" x1="-4940.9" y1="-174.9" x2="-4939.9" y2="-174.5" xlink:href="#Dégradé_sans_nom"/>
    <linearGradient id="Dégradé_sans_nom_7" data-name="Dégradé sans nom 7" x1="-1266.2" y1="-108.7" x2="-1265.6" y2="-108.8" gradientTransform="translate(21528 -520) scale(17 -5)" gradientUnits="userSpaceOnUse">
      <stop offset="0" stop-color="#00a09d"/>
      <stop offset="1" stop-color="#00e2ff"/>
    </linearGradient>
    <linearGradient id="Dégradé_sans_nom_7-2" data-name="Dégradé sans nom 7" x1="-1265.5" y1="-108.7" x2="-1264.9" y2="-108.8" xlink:href="#Dégradé_sans_nom_7"/>
  </defs>
  <!-- Generator: Adobe Illustrator 28.7.1, SVG Export Plug-In . SVG Version: 1.2.0 Build 142)  -->
  <g>
    <g id="Calque_1">
      <rect class="cls-11" x="2.8" y="29" width="37.5" height="6.8"/>
      <g>
        <rect id="path-5" x="2.7" y="6.2" width="38.8" height="2"/>
        <rect id="path-5-2" class="cls-3" x="2.7" y="6.2" width="38.8" height="2"/>
      </g>
      <g>
        <path id="path-7" class="cls-2" d="M69.2,18.2v1H2.7v-1h66.5ZM57.6,15.2v1H2.7v-1h54.9ZM69.2,12.2v1H2.7v-1h66.5Z"/>
        <path id="path-7-2" class="cls-1" d="M69.2,18.2v1H2.7v-1h66.5ZM57.6,15.2v1H2.7v-1h54.9ZM69.2,12.2v1H2.7v-1h66.5Z"/>
      </g>
      <rect class="cls-7" x="2.8" y="37.5" width="37.5" height="6.8"/>
      <rect class="cls-6" x="2.8" y="46" width="37.5" height="6.8"/>
      <rect class="cls-9" x="41.8" y="29" width="37.5" height="6.8"/>
      <rect class="cls-8" x="41.8" y="37.5" width="37.5" height="6.8"/>
      <rect class="cls-10" x="41.8" y="46" width="37.5" height="6.8"/>
      <g>
        <rect id="path-5-2" data-name="path-5" x="4.7" y="30.3" width="25.6" height=".7"/>
        <rect id="path-5-2-2" data-name="path-5-2" class="cls-3" x="4.7" y="30.3" width="25.6" height=".7"/>
      </g>
      <g>
        <path id="path-7-2" data-name="path-7" class="cls-2" d="M28.2,34.6v.4H4.7v-.4h23.5ZM24.1,33.5v.4H4.7v-.4h19.4ZM28.2,32.5v.4H4.7v-.4h23.5Z"/>
        <path id="path-7-2-2" data-name="path-7-2" class="cls-1" d="M28.2,34.6v.4H4.7v-.4h23.5ZM24.1,33.5v.4H4.7v-.4h19.4ZM28.2,32.5v.4H4.7v-.4h23.5Z"/>
      </g>
      <g>
        <rect id="path-5-3" data-name="path-5" x="4.7" y="38.5" width="25.6" height=".7"/>
        <rect id="path-5-2-3" data-name="path-5-2" class="cls-3" x="4.7" y="38.5" width="25.6" height=".7"/>
      </g>
      <g>
        <path id="path-7-3" data-name="path-7" class="cls-2" d="M28.2,42.9v.4H4.7v-.4h23.5ZM24.1,41.8v.4H4.7v-.4h19.4ZM28.2,40.7v.4H4.7v-.4h23.5Z"/>
        <path id="path-7-2-3" data-name="path-7-2" class="cls-1" d="M28.2,42.9v.4H4.7v-.4h23.5ZM24.1,41.8v.4H4.7v-.4h19.4ZM28.2,40.7v.4H4.7v-.4h23.5Z"/>
      </g>
      <g>
        <rect id="path-5-4" data-name="path-5" x="4.7" y="47" width="25.6" height=".7"/>
        <rect id="path-5-2-4" data-name="path-5-2" class="cls-3" x="4.7" y="47" width="25.6" height=".7"/>
      </g>
      <g>
        <path id="path-7-4" data-name="path-7" class="cls-2" d="M28.2,51.4v.4H4.7v-.4h23.5ZM24.1,50.3v.4H4.7v-.4h19.4ZM28.2,49.2v.4H4.7v-.4h23.5Z"/>
        <path id="path-7-2-4" data-name="path-7-2" class="cls-1" d="M28.2,51.4v.4H4.7v-.4h23.5ZM24.1,50.3v.4H4.7v-.4h19.4ZM28.2,49.2v.4H4.7v-.4h23.5Z"/>
      </g>
      <g>
        <rect id="path-5-5" data-name="path-5" x="43.7" y="30" width="25.6" height=".7"/>
        <rect id="path-5-2-5" data-name="path-5-2" class="cls-3" x="43.7" y="30" width="25.6" height=".7"/>
      </g>
      <g>
        <path id="path-7-5" data-name="path-7" class="cls-2" d="M67.2,34.3v.4h-23.5v-.4h23.5ZM63.1,33.2v.4h-19.4v-.4h19.4ZM67.2,32.1v.4h-23.5v-.4h23.5Z"/>
        <path id="path-7-2-5" data-name="path-7-2" class="cls-1" d="M67.2,34.3v.4h-23.5v-.4h23.5ZM63.1,33.2v.4h-19.4v-.4h19.4ZM67.2,32.1v.4h-23.5v-.4h23.5Z"/>
      </g>
      <g>
        <rect id="path-5-6" data-name="path-5" x="43.7" y="38.2" width="25.6" height=".7"/>
        <rect id="path-5-2-6" data-name="path-5-2" class="cls-3" x="43.7" y="38.2" width="25.6" height=".7"/>
      </g>
      <g>
        <path id="path-7-6" data-name="path-7" class="cls-2" d="M67.2,42.5v.4h-23.5v-.4h23.5ZM63.1,41.5v.4h-19.4v-.4h19.4ZM67.2,40.4v.4h-23.5v-.4h23.5Z"/>
        <path id="path-7-2-6" data-name="path-7-2" class="cls-1" d="M67.2,42.5v.4h-23.5v-.4h23.5ZM63.1,41.5v.4h-19.4v-.4h19.4ZM67.2,40.4v.4h-23.5v-.4h23.5Z"/>
      </g>
      <g>
        <rect id="path-5-7" data-name="path-5" x="43.7" y="46.7" width="25.6" height=".7"/>
        <rect id="path-5-2-7" data-name="path-5-2" class="cls-3" x="43.7" y="46.7" width="25.6" height=".7"/>
      </g>
      <g>
        <path id="path-7-7" data-name="path-7" class="cls-2" d="M67.2,51.1v.4h-23.5v-.4h23.5ZM63.1,50v.4h-19.4v-.4h19.4ZM67.2,48.9v.4h-23.5v-.4h23.5Z"/>
        <path id="path-7-2-7" data-name="path-7-2" class="cls-1" d="M67.2,51.1v.4h-23.5v-.4h23.5ZM63.1,50v.4h-19.4v-.4h19.4ZM67.2,48.9v.4h-23.5v-.4h23.5Z"/>
      </g>
      <rect class="cls-4" x="2.7" y="22.2" width="10.2" height="3"/>
      <rect class="cls-5" x="14.2" y="22.2" width="10.2" height="3"/>
    </g>
  </g>
</svg>