<?xml version="1.0" encoding="UTF-8"?>
<svg id="Calque_1" data-name="Calque 1" xmlns="http://www.w3.org/2000/svg" version="1.1" viewBox="0 0 82 60">
  <defs>
    <style>
      .cls-1, .cls-2, .cls-3, .cls-4 {
        stroke-width: 0px;
      }

      .cls-1, .cls-3 {
        fill: #000;
      }

      .cls-2 {
        fill-opacity: .8;
      }

      .cls-2, .cls-4 {
        fill: #fff;
      }

      .cls-3, .cls-4 {
        fill-rule: evenodd;
      }

      .cls-4 {
        fill-opacity: .3;
      }
    </style>
  </defs>
  <g>
    <rect id="path-5" class="cls-1" x="2.9" y="14" width="25.8" height="2"/>
    <rect id="path-5-2" data-name="path-5" class="cls-2" x="2.9" y="14" width="25.8" height="2"/>
  </g>
  <g>
    <rect id="path-5-3" data-name="path-5" class="cls-1" x="2.8" y="18.5" width="48" height="2"/>
    <rect id="path-5-4" data-name="path-5" class="cls-2" x="2.8" y="18.5" width="48" height="2"/>
  </g>
  <g>
    <rect id="path-5-5" data-name="path-5" class="cls-1" x="2.7" y="28.8" width="17.3" height="2"/>
    <rect id="path-5-6" data-name="path-5" class="cls-2" x="2.7" y="28.8" width="17.3" height="2"/>
  </g>
  <g>
    <path id="path-7" class="cls-3" d="M18.5,41.3v1H2.9v-1h15.6ZM15.7,38.3v1H2.9v-1h12.9ZM18.5,35.3v1H2.9v-1h15.6Z"/>
    <path id="path-7-2" data-name="path-7" class="cls-4" d="M18.5,41.3v1H2.9v-1h15.6ZM15.7,38.3v1H2.9v-1h12.9ZM18.5,35.3v1H2.9v-1h15.6Z"/>
  </g>
  <g>
    <rect id="path-5-7" data-name="path-5" class="cls-1" x="22.3" y="28.8" width="17.3" height="2"/>
    <rect id="path-5-8" data-name="path-5" class="cls-2" x="22.3" y="28.8" width="17.3" height="2"/>
  </g>
  <g>
    <path id="path-7-3" data-name="path-7" class="cls-3" d="M38.1,41.3v1h-15.6v-1h15.6ZM35.3,38.3v1h-12.9v-1h12.9ZM38.1,35.3v1h-15.6v-1h15.6Z"/>
    <path id="path-7-4" data-name="path-7" class="cls-4" d="M38.1,41.3v1h-15.6v-1h15.6ZM35.3,38.3v1h-12.9v-1h12.9ZM38.1,35.3v1h-15.6v-1h15.6Z"/>
  </g>
  <g>
    <rect id="path-5-9" data-name="path-5" class="cls-1" x="41.7" y="28.8" width="17.3" height="2"/>
    <rect id="path-5-10" data-name="path-5" class="cls-2" x="41.7" y="28.8" width="17.3" height="2"/>
  </g>
  <g>
    <path id="path-7-5" data-name="path-7" class="cls-3" d="M57.4,41.3v1h-15.6v-1h15.6ZM54.7,38.3v1h-12.9v-1h12.9ZM57.4,35.3v1h-15.6v-1h15.6Z"/>
    <path id="path-7-6" data-name="path-7" class="cls-4" d="M57.4,41.3v1h-15.6v-1h15.6ZM54.7,38.3v1h-12.9v-1h12.9ZM57.4,35.3v1h-15.6v-1h15.6Z"/>
  </g>
  <g>
    <rect id="path-5-11" data-name="path-5" class="cls-1" x="61.4" y="28.8" width="17.3" height="2"/>
    <rect id="path-5-12" data-name="path-5" class="cls-2" x="61.4" y="28.8" width="17.3" height="2"/>
  </g>
  <g>
    <path id="path-7-7" data-name="path-7" class="cls-3" d="M77.2,41.3v1h-15.6v-1h15.6ZM74.5,38.3v1h-12.9v-1h12.9ZM77.2,35.3v1h-15.6v-1h15.6Z"/>
    <path id="path-7-8" data-name="path-7" class="cls-4" d="M77.2,41.3v1h-15.6v-1h15.6ZM74.5,38.3v1h-12.9v-1h12.9ZM77.2,35.3v1h-15.6v-1h15.6Z"/>
  </g>
</svg>