<?xml version="1.0" encoding="UTF-8"?>
<svg xmlns="http://www.w3.org/2000/svg" xmlns:xlink="http://www.w3.org/1999/xlink" version="1.1" viewBox="0 0 82 60">
  <defs>
    <style>
      .cls-1 {
        fill: #79d1f2;
      }

      .cls-2 {
        fill-opacity: .3;
      }

      .cls-2, .cls-3 {
        fill-rule: evenodd;
      }

      .cls-2, .cls-4, .cls-5 {
        fill: #fff;
      }

      .cls-6 {
        fill: #f3ec60;
      }

      .cls-7 {
        fill: url(#Dégradé_sans_nom_4);
      }

      .cls-8 {
        fill: url(#Dégradé_sans_nom_5);
      }

      .cls-9 {
        fill: url(#Dégradé_sans_nom_2);
      }

      .cls-10 {
        fill: url(#Dégradé_sans_nom_3);
      }

      .cls-11 {
        fill: url(#Dégradé_sans_nom_2-4);
      }

      .cls-12 {
        fill: url(#Dégradé_sans_nom_2-3);
      }

      .cls-13 {
        fill: url(#Dégradé_sans_nom_2-2);
      }

      .cls-14 {
        fill: url(#Dégradé_sans_nom_2-5);
      }

      .cls-15 {
        fill: url(#Dégradé_sans_nom_3-3);
      }

      .cls-16 {
        fill: url(#Dégradé_sans_nom_3-2);
      }

      .cls-17 {
        fill: url(#Dégradé_sans_nom_3-5);
      }

      .cls-18 {
        fill: url(#Dégradé_sans_nom_3-4);
      }

      .cls-5 {
        fill-opacity: .8;
      }

      .cls-19 {
        fill: url(#Dégradé_sans_nom-3);
      }

      .cls-19, .cls-20, .cls-21 {
        isolation: isolate;
        opacity: .4;
      }

      .cls-20 {
        fill: url(#Dégradé_sans_nom-2);
      }

      .cls-21 {
        fill: url(#Dégradé_sans_nom);
      }
    </style>
    <linearGradient id="Dégradé_sans_nom" data-name="Dégradé sans nom" x1="-4941.8" y1="-175.8" x2="-4940.9" y2="-175.5" gradientTransform="translate(148272 3019) scale(30 17)" gradientUnits="userSpaceOnUse">
      <stop offset="0" stop-color="#00e2ff"/>
      <stop offset="1" stop-color="#00a09d"/>
    </linearGradient>
    <linearGradient id="Dégradé_sans_nom_2" data-name="Dégradé sans nom 2" x1="-4875.8" y1="-122.7" x2="-4876" y2="-122.8" gradientTransform="translate(105835.1 1665.7) scale(21.7 13.3)" gradientUnits="userSpaceOnUse">
      <stop offset="0" stop-color="#008374"/>
      <stop offset="1" stop-color="#006a59"/>
    </linearGradient>
    <linearGradient id="Dégradé_sans_nom_3" data-name="Dégradé sans nom 3" x1="-4963.6" y1="-208.8" x2="-4963.8" y2="-208.7" gradientTransform="translate(171784 4373.4) scale(34.6 20.8)" gradientUnits="userSpaceOnUse">
      <stop offset="0" stop-color="#00aa89"/>
      <stop offset="1" stop-color="#009989"/>
    </linearGradient>
    <linearGradient id="Dégradé_sans_nom_4" data-name="Dégradé sans nom 4" x1="-4875.8" y1="-122.6" x2="-4876" y2="-122.7" gradientTransform="translate(105835.1 1665.7) scale(21.7 13.3)" gradientUnits="userSpaceOnUse">
      <stop offset="0" stop-color="#008374"/>
      <stop offset="1" stop-color="#006a59"/>
    </linearGradient>
    <linearGradient id="Dégradé_sans_nom_5" data-name="Dégradé sans nom 5" x1="-4963.5" y1="-208.6" x2="-4963.8" y2="-208.6" gradientTransform="translate(171784 4373.4) scale(34.6 20.8)" gradientUnits="userSpaceOnUse">
      <stop offset="0" stop-color="#00aa89"/>
      <stop offset="1" stop-color="#009989"/>
    </linearGradient>
    <linearGradient id="Dégradé_sans_nom-2" data-name="Dégradé sans nom" x1="-4941.1" y1="-175.8" x2="-4940.3" y2="-175.5" xlink:href="#Dégradé_sans_nom"/>
    <linearGradient id="Dégradé_sans_nom_2-2" data-name="Dégradé sans nom 2" x1="-4874.9" y1="-122.7" x2="-4875.1" y2="-122.8" xlink:href="#Dégradé_sans_nom_2"/>
    <linearGradient id="Dégradé_sans_nom_3-2" data-name="Dégradé sans nom 3" x1="-4963" y1="-208.8" x2="-4963.2" y2="-208.7" xlink:href="#Dégradé_sans_nom_3"/>
    <linearGradient id="Dégradé_sans_nom_2-3" data-name="Dégradé sans nom 2" x1="-4874.9" y1="-122.6" x2="-4875.1" y2="-122.7" xlink:href="#Dégradé_sans_nom_2"/>
    <linearGradient id="Dégradé_sans_nom_3-3" data-name="Dégradé sans nom 3" x1="-4963" y1="-208.6" x2="-4963.2" y2="-208.6" xlink:href="#Dégradé_sans_nom_3"/>
    <linearGradient id="Dégradé_sans_nom-3" data-name="Dégradé sans nom" x1="-4940.4" x2="-4939.6" xlink:href="#Dégradé_sans_nom"/>
    <linearGradient id="Dégradé_sans_nom_2-4" data-name="Dégradé sans nom 2" x1="-4873.9" y1="-122.7" x2="-4874.1" y2="-122.8" xlink:href="#Dégradé_sans_nom_2"/>
    <linearGradient id="Dégradé_sans_nom_3-4" data-name="Dégradé sans nom 3" x1="-4962.4" y1="-208.8" x2="-4962.6" y2="-208.7" xlink:href="#Dégradé_sans_nom_3"/>
    <linearGradient id="Dégradé_sans_nom_2-5" data-name="Dégradé sans nom 2" x1="-4873.9" y1="-122.6" x2="-4874.1" y2="-122.7" xlink:href="#Dégradé_sans_nom_2"/>
    <linearGradient id="Dégradé_sans_nom_3-5" data-name="Dégradé sans nom 3" x1="-4962.4" y1="-208.6" x2="-4962.6" y2="-208.6" xlink:href="#Dégradé_sans_nom_3"/>
  </defs>
  <!-- Generator: Adobe Illustrator 28.7.1, SVG Export Plug-In . SVG Version: 1.2.0 Build 142)  -->
  <g>
    <g id="Calque_1">
      <rect class="cls-21" x="21.3" y="19.5" width="19" height="26"/>
      <g>
        <path class="cls-1" d="M33.3,34.4c1.1-.9,2.7-1.4,4.4-1.5v-9.7h-13.8v7c4.1,0,7.6,1.7,9.4,4.2ZM34.7,23.7c1.2,0,2.2,1.2,2.2,2.6s-1,2.6-2.2,2.6-2.2-1.2-2.2-2.6,1-2.6,2.2-2.6Z"/>
        <ellipse class="cls-6" cx="34.7" cy="26.3" rx="2.2" ry="2.6"/>
        <path class="cls-1" d="M34.2,36.1h3.5v-3.2c-1.7.1-3.2.6-4.4,1.5.4.5.7,1.1.9,1.7Z"/>
        <path class="cls-9" d="M34.2,36.1h3.5v-3.2c-1.7.1-3.2.6-4.4,1.5.4.5.7,1.1.9,1.7Z"/>
        <path class="cls-1" d="M33.3,34.4c-1.8-2.5-5.3-4.2-9.4-4.2v6h8c.3-.6.9-1.2,1.5-1.7Z"/>
        <path class="cls-10" d="M33.3,34.4c-1.8-2.5-5.3-4.2-9.4-4.2v6h8c.3-.6.9-1.2,1.5-1.7Z"/>
        <path class="cls-1" d="M33.3,34.4c-.7.5-1.1,1.1-1.5,1.7h2.4c-.2-.6-.5-1.2-.9-1.7Z"/>
        <path class="cls-7" d="M33.3,34.4c-.7.5-1.1,1.1-1.5,1.7h2.4c-.2-.6-.5-1.2-.9-1.7Z"/>
        <path class="cls-8" d="M33.3,34.4c-.7.5-1.1,1.1-1.5,1.7h2.4c-.2-.6-.5-1.2-.9-1.7Z"/>
        <path class="cls-4" d="M23.2,22.4v7.8h.3v-7.4h14.5v10.1h.3v-10.5h-15.1Z"/>
        <path class="cls-4" d="M23.8,30.1v-7h13.8v9.7h.3v-10.1h-14.5v7.4h.1s.1,0,.2,0Z"/>
        <path class="cls-4" d="M38,32.9v3.7h-3.7c0,.1,0,.2,0,.3h3.9v-4h-.3Z"/>
        <path class="cls-4" d="M37.7,36.1h-3.5c0,.2,0,.3.1.5h3.7v-3.7h-.3v3.2Z"/>
        <path class="cls-4" d="M31.5,36.9c0-.1,0-.2,0-.3h-8.1v-6.4h-.3v6.7s8.2,0,8.2,0Z"/>
        <path class="cls-4" d="M31.6,36.6c0-.2.1-.3.2-.5h-8v-6h-.3v6.4h8.1Z"/>
        <path class="cls-4" d="M31.6,36.6c0,.1,0,.2,0,.3h2.9c0-.1,0-.2,0-.3h-2.8Z"/>
        <path class="cls-4" d="M31.8,36.1c0,.2-.1.3-.2.5h2.8c0-.2,0-.3-.1-.5h-2.4Z"/>
      </g>
      <g>
        <rect id="path-5" x="2.1" y="19.5" width="17.7" height="1.3"/>
        <rect id="path-5-2" class="cls-5" x="2.1" y="19.5" width="17.7" height="1.3"/>
      </g>
      <g>
        <path id="path-7" class="cls-3" d="M18.4,27.2v.6H2.1v-.6h16.3ZM15.5,25.2v.6H2.1v-.6h13.4ZM18.4,23.3v.6H2.1v-.6h16.3Z"/>
        <path id="path-7-2" class="cls-2" d="M18.4,27.2v.6H2.1v-.6h16.3ZM15.5,25.2v.6H2.1v-.6h13.4ZM18.4,23.3v.6H2.1v-.6h16.3Z"/>
      </g>
      <rect class="cls-20" x="41.7" y="19.5" width="19" height="26"/>
      <g>
        <path class="cls-1" d="M53.7,34.4c1.1-.9,2.7-1.4,4.4-1.5v-9.7h-13.8v7c4.1,0,7.6,1.7,9.4,4.2ZM55.1,23.7c1.2,0,2.2,1.2,2.2,2.6s-1,2.6-2.2,2.6-2.2-1.2-2.2-2.6,1-2.6,2.2-2.6Z"/>
        <ellipse class="cls-6" cx="55.1" cy="26.3" rx="2.2" ry="2.6"/>
        <path class="cls-1" d="M54.6,36.1h3.5v-3.2c-1.7.1-3.2.6-4.4,1.5.4.5.7,1.1.9,1.7Z"/>
        <path class="cls-13" d="M54.6,36.1h3.5v-3.2c-1.7.1-3.2.6-4.4,1.5.4.5.7,1.1.9,1.7Z"/>
        <path class="cls-1" d="M53.7,34.4c-1.8-2.5-5.3-4.2-9.4-4.2v6h8c.3-.6.9-1.2,1.5-1.7Z"/>
        <path class="cls-16" d="M53.7,34.4c-1.8-2.5-5.3-4.2-9.4-4.2v6h8c.3-.6.9-1.2,1.5-1.7Z"/>
        <path class="cls-1" d="M53.7,34.4c-.7.5-1.1,1.1-1.5,1.7h2.4c-.2-.6-.5-1.2-.9-1.7Z"/>
        <path class="cls-12" d="M53.7,34.4c-.7.5-1.1,1.1-1.5,1.7h2.4c-.2-.6-.5-1.2-.9-1.7Z"/>
        <path class="cls-15" d="M53.7,34.4c-.7.5-1.1,1.1-1.5,1.7h2.4c-.2-.6-.5-1.2-.9-1.7Z"/>
        <path class="cls-4" d="M43.6,22.4v7.8h.3v-7.4h14.5v10.1h.3v-10.5h-15.1Z"/>
        <path class="cls-4" d="M44.3,30.1v-7h13.8v9.7h.3v-10.1h-14.5v7.4h.1s.1,0,.2,0Z"/>
        <path class="cls-4" d="M58.4,32.9v3.7h-3.7c0,.1,0,.2,0,.3h3.9v-4h-.3Z"/>
        <path class="cls-4" d="M58.1,36.1h-3.5c0,.2,0,.3.1.5h3.7v-3.7h-.3v3.2Z"/>
        <path class="cls-4" d="M51.9,36.9c0-.1,0-.2,0-.3h-8.1v-6.4h-.3v6.7s8.2,0,8.2,0Z"/>
        <path class="cls-4" d="M52,36.6c0-.2.1-.3.2-.5h-8v-6h-.3v6.4h8.1Z"/>
        <path class="cls-4" d="M52,36.6c0,.1,0,.2,0,.3h2.9c0-.1,0-.2,0-.3h-2.8Z"/>
        <path class="cls-4" d="M52.2,36.1c0,.2-.1.3-.2.5h2.8c0-.2,0-.3-.1-.5h-2.4Z"/>
      </g>
      <rect class="cls-19" x="62.1" y="19.5" width="19" height="26"/>
      <g>
        <path class="cls-1" d="M74.1,34.4c1.1-.9,2.7-1.4,4.4-1.5v-9.7h-13.8v7c4.1,0,7.6,1.7,9.4,4.2ZM75.5,23.7c1.2,0,2.2,1.2,2.2,2.6s-1,2.6-2.2,2.6-2.2-1.2-2.2-2.6,1-2.6,2.2-2.6Z"/>
        <ellipse class="cls-6" cx="75.5" cy="26.3" rx="2.2" ry="2.6"/>
        <path class="cls-1" d="M75,36.1h3.5v-3.2c-1.7.1-3.2.6-4.4,1.5.4.5.7,1.1.9,1.7Z"/>
        <path class="cls-11" d="M75,36.1h3.5v-3.2c-1.7.1-3.2.6-4.4,1.5.4.5.7,1.1.9,1.7Z"/>
        <path class="cls-1" d="M74.1,34.4c-1.8-2.5-5.3-4.2-9.4-4.2v6h8c.3-.6.9-1.2,1.5-1.7Z"/>
        <path class="cls-18" d="M74.1,34.4c-1.8-2.5-5.3-4.2-9.4-4.2v6h8c.3-.6.9-1.2,1.5-1.7Z"/>
        <path class="cls-1" d="M74.1,34.4c-.7.5-1.1,1.1-1.5,1.7h2.4c-.2-.6-.5-1.2-.9-1.7Z"/>
        <path class="cls-14" d="M74.1,34.4c-.7.5-1.1,1.1-1.5,1.7h2.4c-.2-.6-.5-1.2-.9-1.7Z"/>
        <path class="cls-17" d="M74.1,34.4c-.7.5-1.1,1.1-1.5,1.7h2.4c-.2-.6-.5-1.2-.9-1.7Z"/>
        <path class="cls-4" d="M64.1,22.4v7.8h.3v-7.4h14.5v10.1h.3v-10.5h-15.1Z"/>
        <path class="cls-4" d="M64.7,30.1v-7h13.8v9.7h.3v-10.1h-14.5v7.4h.1s.1,0,.2,0Z"/>
        <path class="cls-4" d="M78.9,32.9v3.7h-3.7c0,.1,0,.2,0,.3h3.9v-4h-.3Z"/>
        <path class="cls-4" d="M78.5,36.1h-3.5c0,.2,0,.3.1.5h3.7v-3.7h-.3v3.2Z"/>
        <path class="cls-4" d="M72.3,36.9c0-.1,0-.2,0-.3h-8.1v-6.4h-.3v6.7s8.2,0,8.2,0Z"/>
        <path class="cls-4" d="M72.4,36.6c0-.2.1-.3.2-.5h-8v-6h-.3v6.4h8.1Z"/>
        <path class="cls-4" d="M72.4,36.6c0,.1,0,.2,0,.3h2.9c0-.1,0-.2,0-.3h-2.8Z"/>
        <path class="cls-4" d="M72.7,36.1c0,.2-.1.3-.2.5h2.8c0-.2,0-.3-.1-.5h-2.4Z"/>
      </g>
    </g>
  </g>
</svg>