<?xml version="1.0" encoding="UTF-8"?>
<svg xmlns="http://www.w3.org/2000/svg" xmlns:xlink="http://www.w3.org/1999/xlink" version="1.1" viewBox="0 0 82 60">
  <defs>
    <style>
      .cls-1 {
        fill: #79d1f2;
      }

      .cls-2 {
        fill-opacity: .3;
      }

      .cls-2, .cls-3 {
        fill-rule: evenodd;
      }

      .cls-2, .cls-4, .cls-5 {
        fill: #fff;
      }

      .cls-6 {
        fill: #f3ec60;
      }

      .cls-7 {
        fill: url(#Dégradé_sans_nom_7);
      }

      .cls-8 {
        fill: url(#Dégradé_sans_nom_4);
      }

      .cls-9 {
        fill: url(#Dégradé_sans_nom_5);
      }

      .cls-10 {
        fill: url(#Dégradé_sans_nom_2);
      }

      .cls-11 {
        fill: url(#Dégradé_sans_nom_3);
      }

      .cls-12 {
        fill: url(#Dégradé_sans_nom_7-2);
      }

      .cls-13, .cls-14 {
        fill: #19b1a0;
      }

      .cls-13, .cls-5 {
        fill-opacity: .8;
      }

      .cls-15 {
        fill: #72c8dc;
        font-family: MyriadPro-Regular, 'Myriad Pro';
        font-size: 3.7px;
      }

      .cls-16 {
        fill: url(#Dégradé_sans_nom);
        isolation: isolate;
        opacity: .4;
      }
    </style>
    <linearGradient id="Dégradé_sans_nom" data-name="Dégradé sans nom" x1="-4942.2" y1="-176.1" x2="-4939.9" y2="-175.3" gradientTransform="translate(148272 3019) scale(30 17)" gradientUnits="userSpaceOnUse">
      <stop offset="0" stop-color="#00e2ff"/>
      <stop offset="1" stop-color="#00a09d"/>
    </linearGradient>
    <linearGradient id="Dégradé_sans_nom_2" data-name="Dégradé sans nom 2" x1="-4876.4" y1="-122.3" x2="-4876.7" y2="-122.4" gradientTransform="translate(105835.1 1665.7) scale(21.7 13.3)" gradientUnits="userSpaceOnUse">
      <stop offset="0" stop-color="#008374"/>
      <stop offset="1" stop-color="#006a59"/>
    </linearGradient>
    <linearGradient id="Dégradé_sans_nom_3" data-name="Dégradé sans nom 3" x1="-4963.6" y1="-208.6" x2="-4964" y2="-208.5" gradientTransform="translate(171784 4373.4) scale(34.6 20.8)" gradientUnits="userSpaceOnUse">
      <stop offset="0" stop-color="#00aa89"/>
      <stop offset="1" stop-color="#009989"/>
    </linearGradient>
    <linearGradient id="Dégradé_sans_nom_4" data-name="Dégradé sans nom 4" x1="-4876.4" y1="-122.2" x2="-4876.7" y2="-122.3" gradientTransform="translate(105835.1 1665.7) scale(21.7 13.3)" gradientUnits="userSpaceOnUse">
      <stop offset="0" stop-color="#008374"/>
      <stop offset="1" stop-color="#006a59"/>
    </linearGradient>
    <linearGradient id="Dégradé_sans_nom_5" data-name="Dégradé sans nom 5" x1="-4963.6" y1="-208.4" x2="-4964" y2="-208.3" gradientTransform="translate(171784 4373.4) scale(34.6 20.8)" gradientUnits="userSpaceOnUse">
      <stop offset="0" stop-color="#00aa89"/>
      <stop offset="1" stop-color="#009989"/>
    </linearGradient>
    <linearGradient id="Dégradé_sans_nom_7" data-name="Dégradé sans nom 7" x1="-1264.3" y1="-112.1" x2="-1263.8" y2="-112.2" gradientTransform="translate(21528 -520) scale(17 -5)" gradientUnits="userSpaceOnUse">
      <stop offset="0" stop-color="#00a09d"/>
      <stop offset="1" stop-color="#00e2ff"/>
    </linearGradient>
    <linearGradient id="Dégradé_sans_nom_7-2" data-name="Dégradé sans nom 7" x1="-1263.7" y1="-112.1" x2="-1263.2" y2="-112.2" xlink:href="#Dégradé_sans_nom_7"/>
  </defs>
  <!-- Generator: Adobe Illustrator 28.7.1, SVG Export Plug-In . SVG Version: 1.2.0 Build 142)  -->
  <g>
    <g id="Calque_1">
      <rect class="cls-16" x="4.8" y="17.9" width="72.4" height="28.4"/>
      <g>
        <path class="cls-1" d="M24,40.1c1.9-1.3,4.5-2.1,7.5-2.2v-14.5H7.9v10.4c7,0,13,2.6,16,6.3ZM26.3,24.3c2,0,3.7,1.7,3.7,3.8s-1.7,3.8-3.7,3.8-3.7-1.7-3.7-3.8,1.7-3.8,3.7-3.8Z"/>
        <ellipse class="cls-6" cx="26.3" cy="28.1" rx="3.7" ry="3.8"/>
        <path class="cls-1" d="M25.5,42.7h5.9v-4.8c-2.9.2-5.5.9-7.5,2.2.6.8,1.2,1.6,1.5,2.6Z"/>
        <path class="cls-10" d="M25.5,42.7h5.9v-4.8c-2.9.2-5.5.9-7.5,2.2.6.8,1.2,1.6,1.5,2.6Z"/>
        <path class="cls-1" d="M24,40.1c-3.1-3.7-9.1-6.2-16-6.3v8.9h13.5c.6-.9,1.5-1.8,2.5-2.6Z"/>
        <path class="cls-11" d="M24,40.1c-3.1-3.7-9.1-6.2-16-6.3v8.9h13.5c.6-.9,1.5-1.8,2.5-2.6Z"/>
        <path class="cls-1" d="M24,40.1c-1.1.7-1.9,1.6-2.5,2.6h4.1c-.3-.9-.9-1.7-1.5-2.6Z"/>
        <path class="cls-8" d="M24,40.1c-1.1.7-1.9,1.6-2.5,2.6h4.1c-.3-.9-.9-1.7-1.5-2.6Z"/>
        <path class="cls-9" d="M24,40.1c-1.1.7-1.9,1.6-2.5,2.6h4.1c-.3-.9-.9-1.7-1.5-2.6Z"/>
        <path class="cls-4" d="M6.9,22.3v11.6h.5v-11h24.6v15.1h.5v-15.6H6.9Z"/>
        <path class="cls-4" d="M7.9,33.8v-10.4h23.5v14.5h.6v-15.1H7.4v11h.2c0,0,.2,0,.3,0Z"/>
        <path class="cls-4" d="M32,37.9v5.5h-6.2c0,.2,0,.3,0,.4h6.6v-6h-.5Z"/>
        <path class="cls-4" d="M31.4,42.7h-5.9c0,.3.2.4.2.7h6.2v-5.5h-.6v4.8Z"/>
        <path class="cls-4" d="M20.9,43.8c0-.2,0-.3.2-.4H7.4v-9.6h-.5v10s14,0,14,0Z"/>
        <path class="cls-4" d="M21.1,43.4c0-.3.2-.4.3-.7H7.9v-8.9h-.6v9.6h13.8Z"/>
        <path class="cls-4" d="M21.1,43.4c0,.2-.2.3-.2.4h4.9c0-.2,0-.3,0-.4h-4.7Z"/>
        <path class="cls-4" d="M21.5,42.7c-.2.3-.2.4-.3.7h4.7c0-.3-.2-.4-.2-.7h-4.1Z"/>
      </g>
      <g>
        <rect id="path-5" x="35.4" y="22.4" width="37.6" height="2"/>
        <rect id="path-5-2" class="cls-5" x="35.4" y="22.4" width="37.6" height="2"/>
      </g>
      <g>
        <path id="path-7" class="cls-3" d="M69.9,34.6v1h-34.6v-1h34.6ZM63.9,31.6v1h-28.6v-1h28.6ZM69.9,28.6v1h-34.6v-1h34.6Z"/>
        <path id="path-7-2" class="cls-2" d="M69.9,34.6v1h-34.6v-1h34.6ZM63.9,31.6v1h-28.6v-1h28.6ZM69.9,28.6v1h-34.6v-1h34.6Z"/>
      </g>
      <rect class="cls-7" x="35.4" y="38.9" width="7.6" height="3.5"/>
      <rect class="cls-12" x="45.4" y="38.9" width="7.6" height="3.5"/>
      <g>
        <rect id="path-5-2" data-name="path-5" class="cls-14" x="4.8" y="15.8" width="10.2" height=".5"/>
        <rect id="path-5-2-2" data-name="path-5-2" class="cls-13" x="4.8" y="15.8" width="10.2" height=".5"/>
      </g>
      <text class="cls-15" transform="translate(4.5 12.7) scale(1.3 1)"><tspan x="0" y="0">Logo</tspan></text>
      <text class="cls-15" transform="translate(22.6 12.7) scale(1.3 1)"><tspan x="0" y="0">Logo</tspan></text>
      <text class="cls-15" transform="translate(41 12.7) scale(1.3 1)"><tspan x="0" y="0">Logo</tspan></text>
      <text class="cls-15" transform="translate(59.7 12.7) scale(1.3 1)"><tspan x="0" y="0">Logo</tspan></text>
    </g>
  </g>
</svg>