<?xml version="1.0" encoding="UTF-8"?>
<svg xmlns="http://www.w3.org/2000/svg" xmlns:xlink="http://www.w3.org/1999/xlink" version="1.1" viewBox="0 0 82 60">
  <defs>
    <style>
      .cls-1 {
        fill: #79d1f2;
      }

      .cls-2 {
        fill-opacity: .3;
      }

      .cls-2, .cls-3 {
        fill-rule: evenodd;
      }

      .cls-2, .cls-4, .cls-5 {
        fill: #fff;
      }

      .cls-6 {
        fill: #f3ec60;
      }

      .cls-7 {
        fill: url(#Dégradé_sans_nom_7);
      }

      .cls-8 {
        fill: url(#Dégradé_sans_nom_4);
      }

      .cls-9 {
        fill: url(#Dégradé_sans_nom_5);
      }

      .cls-10 {
        fill: url(#Dégradé_sans_nom_2);
      }

      .cls-11 {
        fill: url(#Dégradé_sans_nom_3);
      }

      .cls-12 {
        fill: url(#Dégradé_sans_nom_2-4);
      }

      .cls-13 {
        fill: url(#Dégradé_sans_nom_2-3);
      }

      .cls-14 {
        fill: url(#Dégradé_sans_nom_2-2);
      }

      .cls-15 {
        fill: url(#Dégradé_sans_nom_2-5);
      }

      .cls-16 {
        fill: url(#Dégradé_sans_nom_3-3);
      }

      .cls-17 {
        fill: url(#Dégradé_sans_nom_3-2);
      }

      .cls-18 {
        fill: url(#Dégradé_sans_nom_3-5);
      }

      .cls-19 {
        fill: url(#Dégradé_sans_nom_3-4);
      }

      .cls-20 {
        fill: url(#Dégradé_sans_nom_7-2);
      }

      .cls-21 {
        fill: url(#Dégradé_sans_nom_7-4);
      }

      .cls-22 {
        fill: url(#Dégradé_sans_nom_7-3);
      }

      .cls-23 {
        fill: url(#Dégradé_sans_nom_7-6);
      }

      .cls-24 {
        fill: url(#Dégradé_sans_nom_7-5);
      }

      .cls-25 {
        fill: url(#Dégradé_sans_nom_7-8);
      }

      .cls-26 {
        fill: url(#Dégradé_sans_nom_7-7);
      }

      .cls-5 {
        fill-opacity: .8;
      }

      .cls-27 {
        fill: url(#Dégradé_sans_nom-3);
      }

      .cls-27, .cls-28, .cls-29 {
        isolation: isolate;
        opacity: .4;
      }

      .cls-28 {
        fill: url(#Dégradé_sans_nom-2);
      }

      .cls-29 {
        fill: url(#Dégradé_sans_nom);
      }
    </style>
    <linearGradient id="Dégradé_sans_nom" data-name="Dégradé sans nom" x1="3.9" y1="37.2" x2="28.7" y2="45.2" gradientUnits="userSpaceOnUse">
      <stop offset="0" stop-color="#00e2ff"/>
      <stop offset="1" stop-color="#00a09d"/>
    </linearGradient>
    <linearGradient id="Dégradé_sans_nom_2" data-name="Dégradé sans nom 2" x1="-4876.5" y1="-122.4" x2="-4876.7" y2="-122.4" gradientTransform="translate(105835.1 1665.7) scale(21.7 13.3)" gradientUnits="userSpaceOnUse">
      <stop offset="0" stop-color="#008374"/>
      <stop offset="1" stop-color="#006a59"/>
    </linearGradient>
    <linearGradient id="Dégradé_sans_nom_3" data-name="Dégradé sans nom 3" x1="-4963.9" y1="-208.5" x2="-4964.2" y2="-208.5" gradientTransform="translate(171784 4373.4) scale(34.6 20.8)" gradientUnits="userSpaceOnUse">
      <stop offset="0" stop-color="#00aa89"/>
      <stop offset="1" stop-color="#009989"/>
    </linearGradient>
    <linearGradient id="Dégradé_sans_nom_4" data-name="Dégradé sans nom 4" x1="-4876.5" y1="-122.3" x2="-4876.7" y2="-122.3" gradientTransform="translate(105835.1 1665.7) scale(21.7 13.3)" gradientUnits="userSpaceOnUse">
      <stop offset="0" stop-color="#008374"/>
      <stop offset="1" stop-color="#006a59"/>
    </linearGradient>
    <linearGradient id="Dégradé_sans_nom_5" data-name="Dégradé sans nom 5" x1="-4963.9" y1="-208.4" x2="-4964.2" y2="-208.3" gradientTransform="translate(171784 4373.4) scale(34.6 20.8)" gradientUnits="userSpaceOnUse">
      <stop offset="0" stop-color="#00aa89"/>
      <stop offset="1" stop-color="#009989"/>
    </linearGradient>
    <linearGradient id="Dégradé_sans_nom_7" data-name="Dégradé sans nom 7" x1="-1266" y1="-108.4" x2="-1265.6" y2="-108.5" gradientTransform="translate(21528 -520) scale(17 -5)" gradientUnits="userSpaceOnUse">
      <stop offset="0" stop-color="#00a09d"/>
      <stop offset="1" stop-color="#00e2ff"/>
    </linearGradient>
    <linearGradient id="Dégradé_sans_nom_7-2" data-name="Dégradé sans nom 7" x1="-1265.5" x2="-1265" y2="-108.5" xlink:href="#Dégradé_sans_nom_7"/>
    <linearGradient id="Dégradé_sans_nom_7-3" data-name="Dégradé sans nom 7" x1="-1265.9" y1="-114.9" x2="-1265.6" y2="-114.9" xlink:href="#Dégradé_sans_nom_7"/>
    <linearGradient id="Dégradé_sans_nom_7-4" data-name="Dégradé sans nom 7" x1="-1265.5" y1="-114.9" x2="-1265.2" y2="-114.9" xlink:href="#Dégradé_sans_nom_7"/>
    <linearGradient id="Dégradé_sans_nom-2" data-name="Dégradé sans nom" x1="28.6" y1="37.1" x2="53.4" y2="45.1" xlink:href="#Dégradé_sans_nom"/>
    <linearGradient id="Dégradé_sans_nom_2-2" data-name="Dégradé sans nom 2" x1="-4875.3" y1="-122.4" x2="-4875.6" y2="-122.4" xlink:href="#Dégradé_sans_nom_2"/>
    <linearGradient id="Dégradé_sans_nom_3-2" data-name="Dégradé sans nom 3" x1="-4963.2" y1="-208.5" x2="-4963.5" y2="-208.5" xlink:href="#Dégradé_sans_nom_3"/>
    <linearGradient id="Dégradé_sans_nom_2-3" data-name="Dégradé sans nom 2" x1="-4875.4" y1="-122.3" x2="-4875.6" y2="-122.3" xlink:href="#Dégradé_sans_nom_2"/>
    <linearGradient id="Dégradé_sans_nom_3-3" data-name="Dégradé sans nom 3" x1="-4963.2" y1="-208.4" x2="-4963.5" y2="-208.4" xlink:href="#Dégradé_sans_nom_3"/>
    <linearGradient id="Dégradé_sans_nom_7-5" data-name="Dégradé sans nom 7" x1="-1264.4" y1="-114.8" x2="-1264.1" y2="-114.9" xlink:href="#Dégradé_sans_nom_7"/>
    <linearGradient id="Dégradé_sans_nom_7-6" data-name="Dégradé sans nom 7" x1="-1264" y1="-114.8" x2="-1263.7" y2="-114.9" xlink:href="#Dégradé_sans_nom_7"/>
    <linearGradient id="Dégradé_sans_nom-3" data-name="Dégradé sans nom" x1="53.3" y1="37.1" x2="78.1" y2="45.1" xlink:href="#Dégradé_sans_nom"/>
    <linearGradient id="Dégradé_sans_nom_2-4" data-name="Dégradé sans nom 2" x1="-4874.2" y1="-122.4" x2="-4874.4" y2="-122.4" xlink:href="#Dégradé_sans_nom_2"/>
    <linearGradient id="Dégradé_sans_nom_3-4" data-name="Dégradé sans nom 3" x1="-4962.5" y1="-208.5" x2="-4962.8" y2="-208.5" xlink:href="#Dégradé_sans_nom_3"/>
    <linearGradient id="Dégradé_sans_nom_2-5" data-name="Dégradé sans nom 2" x1="-4874.2" y1="-122.3" x2="-4874.4" y2="-122.3" xlink:href="#Dégradé_sans_nom_2"/>
    <linearGradient id="Dégradé_sans_nom_3-5" data-name="Dégradé sans nom 3" x1="-4962.5" y1="-208.4" x2="-4962.7" y2="-208.4" xlink:href="#Dégradé_sans_nom_3"/>
    <linearGradient id="Dégradé_sans_nom_7-7" data-name="Dégradé sans nom 7" x1="-1263" y1="-114.8" x2="-1262.7" y2="-114.9" xlink:href="#Dégradé_sans_nom_7"/>
    <linearGradient id="Dégradé_sans_nom_7-8" data-name="Dégradé sans nom 7" x1="-1262.6" y1="-114.8" x2="-1262.3" y2="-114.9" xlink:href="#Dégradé_sans_nom_7"/>
  </defs>
  <!-- Generator: Adobe Illustrator 28.7.1, SVG Export Plug-In . SVG Version: 1.2.0 Build 142)  -->
  <g>
    <g id="Calque_1">
      <path class="cls-29" d="M5.2,25.1h22.1v32.2H5.2V25.1Z"/>
      <g>
        <path class="cls-1" d="M19.4,39.4c1.3-.8,3.1-1.3,5.1-1.4v-9.3H8.5v6.7c4.8,0,8.9,1.7,11,4ZM21,29.2c1.4,0,2.5,1.1,2.5,2.4s-1.2,2.4-2.5,2.4-2.5-1.1-2.5-2.4,1.2-2.4,2.5-2.4Z"/>
        <ellipse class="cls-6" cx="21" cy="31.7" rx="2.5" ry="2.4"/>
        <path class="cls-1" d="M20.5,41.1h4v-3.1c-2,.1-3.8.6-5.1,1.4.4.5.8,1.1,1.1,1.7Z"/>
        <path class="cls-10" d="M20.5,41.1h4v-3.1c-2,.1-3.8.6-5.1,1.4.4.5.8,1.1,1.1,1.7Z"/>
        <path class="cls-1" d="M19.4,39.4c-2.1-2.4-6.2-4-11-4v5.7h9.2c.4-.6,1-1.2,1.7-1.7Z"/>
        <path class="cls-11" d="M19.4,39.4c-2.1-2.4-6.2-4-11-4v5.7h9.2c.4-.6,1-1.2,1.7-1.7Z"/>
        <path class="cls-1" d="M19.4,39.4c-.8.4-1.3,1.1-1.7,1.7h2.8c-.2-.6-.6-1.1-1.1-1.7Z"/>
        <path class="cls-8" d="M19.4,39.4c-.8.4-1.3,1.1-1.7,1.7h2.8c-.2-.6-.6-1.1-1.1-1.7Z"/>
        <path class="cls-9" d="M19.4,39.4c-.8.4-1.3,1.1-1.7,1.7h2.8c-.2-.6-.6-1.1-1.1-1.7Z"/>
        <path class="cls-4" d="M7.7,28v7.4h.3v-7.1h16.8v9.7h.3v-10H7.7Z"/>
        <path class="cls-4" d="M8.5,35.4v-6.7h16.1v9.3h.4v-9.7H8.1v7.1h.2c0,0,.2,0,.2,0Z"/>
        <path class="cls-4" d="M24.9,38v3.5h-4.3c0,.1,0,.2,0,.3h4.5v-3.8h-.3Z"/>
        <path class="cls-4" d="M24.5,41.1h-4c0,.2.1.3.2.4h4.3v-3.5h-.4v3.1Z"/>
        <path class="cls-4" d="M17.3,41.8c0-.1,0-.2.1-.3h-9.4v-6.1h-.3v6.4s9.6,0,9.6,0Z"/>
        <path class="cls-4" d="M17.4,41.5c0-.2.2-.3.2-.4h-9.2v-5.7h-.4v6.1h9.4Z"/>
        <path class="cls-4" d="M17.4,41.5c0,.1-.1.2-.1.3h3.4c0-.1,0-.2,0-.3h-3.2Z"/>
        <path class="cls-4" d="M17.7,41.1c-.1.2-.2.3-.2.4h3.2c0-.2-.1-.3-.2-.4h-2.8Z"/>
      </g>
      <g>
        <rect id="path-5" x="7.7" y="43.7" width="13.2" height="1.2"/>
        <rect id="path-5-2" class="cls-5" x="7.7" y="43.7" width="13.2" height="1.2"/>
      </g>
      <g>
        <path id="path-7" class="cls-3" d="M19.9,50.8v.6H7.7v-.6h12.1ZM17.8,49v.6H7.7v-.6h10ZM19.9,47.3v.6H7.7v-.6h12.1Z"/>
        <path id="path-7-2" class="cls-2" d="M19.9,50.8v.6H7.7v-.6h12.1ZM17.8,49v.6H7.7v-.6h10ZM19.9,47.3v.6H7.7v-.6h12.1Z"/>
      </g>
      <g>
        <rect id="path-5-2" data-name="path-5" x="5.2" y="5.7" width="31.4" height="2"/>
        <rect id="path-5-2-2" data-name="path-5-2" class="cls-5" x="5.2" y="5.7" width="31.4" height="2"/>
      </g>
      <g>
        <path id="path-7-2" data-name="path-7" class="cls-3" d="M36.6,17.7v1H5.2v-1h31.4ZM31.2,14.7v1H5.2v-1h25.9ZM36.6,11.7v1H5.2v-1h31.4Z"/>
        <path id="path-7-2-2" data-name="path-7-2" class="cls-2" d="M36.6,17.7v1H5.2v-1h31.4ZM31.2,14.7v1H5.2v-1h25.9ZM36.6,11.7v1H5.2v-1h31.4Z"/>
      </g>
      <rect class="cls-7" x="5.2" y="21" width="7.4" height="2.5"/>
      <rect class="cls-20" x="14.7" y="21" width="7.4" height="2.5"/>
      <rect class="cls-22" x="7.8" y="53.3" width="5.3" height="2.2"/>
      <rect class="cls-21" x="14.6" y="53.3" width="5.3" height="2.2"/>
      <path class="cls-28" d="M29.9,25h22.1v32.2h-22.1V25Z"/>
      <g>
        <path class="cls-1" d="M44.1,39.3c1.3-.8,3.1-1.3,5.1-1.4v-9.3h-16.1v6.7c4.8,0,8.9,1.7,11,4ZM45.7,29.1c1.4,0,2.5,1.1,2.5,2.4s-1.2,2.4-2.5,2.4-2.5-1.1-2.5-2.4,1.2-2.4,2.5-2.4Z"/>
        <ellipse class="cls-6" cx="45.7" cy="31.6" rx="2.5" ry="2.4"/>
        <path class="cls-1" d="M45.2,41h4v-3.1c-2,.1-3.8.6-5.1,1.4.4.5.8,1.1,1.1,1.7Z"/>
        <path class="cls-14" d="M45.2,41h4v-3.1c-2,.1-3.8.6-5.1,1.4.4.5.8,1.1,1.1,1.7Z"/>
        <path class="cls-1" d="M44.1,39.3c-2.1-2.4-6.2-4-11-4v5.7h9.2c.4-.6,1-1.2,1.7-1.7Z"/>
        <path class="cls-17" d="M44.1,39.3c-2.1-2.4-6.2-4-11-4v5.7h9.2c.4-.6,1-1.2,1.7-1.7Z"/>
        <path class="cls-1" d="M44.1,39.3c-.8.4-1.3,1.1-1.7,1.7h2.8c-.2-.6-.6-1.1-1.1-1.7Z"/>
        <path class="cls-13" d="M44.1,39.3c-.8.4-1.3,1.1-1.7,1.7h2.8c-.2-.6-.6-1.1-1.1-1.7Z"/>
        <path class="cls-16" d="M44.1,39.3c-.8.4-1.3,1.1-1.7,1.7h2.8c-.2-.6-.6-1.1-1.1-1.7Z"/>
        <path class="cls-4" d="M32.4,27.8v7.4h.3v-7.1h16.8v9.7h.3v-10h-17.5Z"/>
        <path class="cls-4" d="M33.2,35.3v-6.7h16.1v9.3h.4v-9.7h-16.8v7.1h.2c0,0,.2,0,.2,0Z"/>
        <path class="cls-4" d="M49.6,37.9v3.5h-4.3c0,.1,0,.2,0,.3h4.5v-3.8h-.3Z"/>
        <path class="cls-4" d="M49.2,41h-4c0,.2.1.3.2.4h4.3v-3.5h-.4v3.1Z"/>
        <path class="cls-4" d="M42,41.7c0-.1,0-.2.1-.3h-9.4v-6.1h-.3v6.4s9.6,0,9.6,0Z"/>
        <path class="cls-4" d="M42.1,41.4c0-.2.2-.3.2-.4h-9.2v-5.7h-.4v6.1h9.4Z"/>
        <path class="cls-4" d="M42.1,41.4c0,.1-.1.2-.1.3h3.4c0-.1,0-.2,0-.3h-3.2Z"/>
        <path class="cls-4" d="M42.4,41c-.1.2-.2.3-.2.4h3.2c0-.2-.1-.3-.2-.4h-2.8Z"/>
      </g>
      <g>
        <rect id="path-5-3" data-name="path-5" x="32.4" y="43.6" width="13.2" height="1.2"/>
        <rect id="path-5-2-3" data-name="path-5-2" class="cls-5" x="32.4" y="43.6" width="13.2" height="1.2"/>
      </g>
      <g>
        <path id="path-7-3" data-name="path-7" class="cls-3" d="M44.6,50.7v.6h-12.1v-.6h12.1ZM42.5,48.9v.6h-10v-.6h10ZM44.6,47.2v.6h-12.1v-.6h12.1Z"/>
        <path id="path-7-2-3" data-name="path-7-2" class="cls-2" d="M44.6,50.7v.6h-12.1v-.6h12.1ZM42.5,48.9v.6h-10v-.6h10ZM44.6,47.2v.6h-12.1v-.6h12.1Z"/>
      </g>
      <rect class="cls-24" x="32.5" y="53.2" width="5.3" height="2.2"/>
      <rect class="cls-23" x="39.3" y="53.2" width="5.3" height="2.2"/>
      <path class="cls-27" d="M54.6,25h22.1v32.2h-22.1V25Z"/>
      <g>
        <path class="cls-1" d="M68.8,39.3c1.3-.8,3.1-1.3,5.1-1.4v-9.3h-16.1v6.7c4.8,0,8.9,1.7,11,4ZM70.4,29.1c1.4,0,2.5,1.1,2.5,2.4s-1.2,2.4-2.5,2.4-2.5-1.1-2.5-2.4,1.2-2.4,2.5-2.4Z"/>
        <ellipse class="cls-6" cx="70.4" cy="31.6" rx="2.5" ry="2.4"/>
        <path class="cls-1" d="M69.9,41h4v-3.1c-2,.1-3.8.6-5.1,1.4.4.5.8,1.1,1.1,1.7Z"/>
        <path class="cls-12" d="M69.9,41h4v-3.1c-2,.1-3.8.6-5.1,1.4.4.5.8,1.1,1.1,1.7Z"/>
        <path class="cls-1" d="M68.8,39.3c-2.1-2.4-6.2-4-11-4v5.7h9.2c.4-.6,1-1.2,1.7-1.7Z"/>
        <path class="cls-19" d="M68.8,39.3c-2.1-2.4-6.2-4-11-4v5.7h9.2c.4-.6,1-1.2,1.7-1.7Z"/>
        <path class="cls-1" d="M68.8,39.3c-.8.4-1.3,1.1-1.7,1.7h2.8c-.2-.6-.6-1.1-1.1-1.7Z"/>
        <path class="cls-15" d="M68.8,39.3c-.8.4-1.3,1.1-1.7,1.7h2.8c-.2-.6-.6-1.1-1.1-1.7Z"/>
        <path class="cls-18" d="M68.8,39.3c-.8.4-1.3,1.1-1.7,1.7h2.8c-.2-.6-.6-1.1-1.1-1.7Z"/>
        <path class="cls-4" d="M57.1,27.8v7.4h.3v-7.1h16.8v9.7h.3v-10h-17.5Z"/>
        <path class="cls-4" d="M57.9,35.3v-6.7h16.1v9.3h.4v-9.7h-16.8v7.1h.2c0,0,.2,0,.2,0Z"/>
        <path class="cls-4" d="M74.3,37.9v3.5h-4.3c0,.1,0,.2,0,.3h4.5v-3.8h-.3Z"/>
        <path class="cls-4" d="M73.9,41h-4c0,.2.1.3.2.4h4.3v-3.5h-.4v3.1Z"/>
        <path class="cls-4" d="M66.7,41.7c0-.1,0-.2.1-.3h-9.4v-6.1h-.3v6.4s9.6,0,9.6,0Z"/>
        <path class="cls-4" d="M66.8,41.4c0-.2.2-.3.2-.4h-9.2v-5.7h-.4v6.1h9.4Z"/>
        <path class="cls-4" d="M66.8,41.4c0,.1-.1.2-.1.3h3.4c0-.1,0-.2,0-.3h-3.2Z"/>
        <path class="cls-4" d="M67.1,41c-.1.2-.2.3-.2.4h3.2c0-.2-.1-.3-.2-.4h-2.8Z"/>
      </g>
      <g>
        <rect id="path-5-4" data-name="path-5" x="57.1" y="43.6" width="13.2" height="1.2"/>
        <rect id="path-5-2-4" data-name="path-5-2" class="cls-5" x="57.1" y="43.6" width="13.2" height="1.2"/>
      </g>
      <g>
        <path id="path-7-4" data-name="path-7" class="cls-3" d="M69.3,50.7v.6h-12.1v-.6h12.1ZM67.2,48.9v.6h-10v-.6h10ZM69.3,47.2v.6h-12.1v-.6h12.1Z"/>
        <path id="path-7-2-4" data-name="path-7-2" class="cls-2" d="M69.3,50.7v.6h-12.1v-.6h12.1ZM67.2,48.9v.6h-10v-.6h10ZM69.3,47.2v.6h-12.1v-.6h12.1Z"/>
      </g>
      <rect class="cls-26" x="57.2" y="53.2" width="5.3" height="2.2"/>
      <rect class="cls-25" x="64" y="53.2" width="5.3" height="2.2"/>
    </g>
  </g>
</svg>