<?xml version="1.0" encoding="UTF-8"?>
<svg xmlns="http://www.w3.org/2000/svg" xmlns:xlink="http://www.w3.org/1999/xlink" version="1.1" viewBox="0 0 82 60">
  <defs>
    <style>
      .cls-1 {
        fill: #79d1f2;
      }

      .cls-2 {
        fill-opacity: .3;
      }

      .cls-2, .cls-3 {
        fill-rule: evenodd;
      }

      .cls-2, .cls-4, .cls-5 {
        fill: #fff;
      }

      .cls-6 {
        fill: #f3ec60;
      }

      .cls-7 {
        fill: url(#Dégradé_sans_nom_4);
      }

      .cls-8 {
        fill: url(#Dégradé_sans_nom_3);
      }

      .cls-9 {
        fill: url(#Dégradé_sans_nom_4-7);
      }

      .cls-10 {
        fill: url(#Dégradé_sans_nom_4-3);
      }

      .cls-11 {
        fill: url(#Dégradé_sans_nom_4-6);
      }

      .cls-12 {
        fill: url(#Dégradé_sans_nom_4-5);
      }

      .cls-13 {
        fill: url(#Dégradé_sans_nom_4-8);
      }

      .cls-14 {
        fill: url(#Dégradé_sans_nom_4-2);
      }

      .cls-15 {
        fill: url(#Dégradé_sans_nom_4-4);
      }

      .cls-16 {
        fill: url(#Dégradé_sans_nom_3-3);
      }

      .cls-17 {
        fill: url(#Dégradé_sans_nom_3-8);
      }

      .cls-18 {
        fill: url(#Dégradé_sans_nom_3-7);
      }

      .cls-19 {
        fill: url(#Dégradé_sans_nom_3-2);
      }

      .cls-20 {
        fill: url(#Dégradé_sans_nom_3-5);
      }

      .cls-21 {
        fill: url(#Dégradé_sans_nom_3-6);
      }

      .cls-22 {
        fill: url(#Dégradé_sans_nom_3-4);
      }

      .cls-5 {
        fill-opacity: .8;
      }

      .cls-23 {
        fill: url(#Dégradé_sans_nom_5-4);
      }

      .cls-23, .cls-24, .cls-25, .cls-26 {
        isolation: isolate;
        opacity: .4;
      }

      .cls-24 {
        fill: url(#Dégradé_sans_nom_5-2);
      }

      .cls-25 {
        fill: url(#Dégradé_sans_nom_5-3);
      }

      .cls-26 {
        fill: url(#Dégradé_sans_nom_5);
      }
    </style>
    <linearGradient id="Dégradé_sans_nom_5" data-name="Dégradé sans nom 5" x1="-4942" y1="-175.7" x2="-4941" y2="-175.4" gradientTransform="translate(148272 3019) scale(30 17)" gradientUnits="userSpaceOnUse">
      <stop offset="0" stop-color="#00e2ff"/>
      <stop offset="1" stop-color="#00a09d"/>
    </linearGradient>
    <linearGradient id="Dégradé_sans_nom_5-2" data-name="Dégradé sans nom 5" x1="-4941.1" y1="-175.7" x2="-4940.1" y2="-175.4" xlink:href="#Dégradé_sans_nom_5"/>
    <linearGradient id="Dégradé_sans_nom_5-3" data-name="Dégradé sans nom 5" x1="-4942" y1="-174.1" x2="-4941" y2="-173.8" xlink:href="#Dégradé_sans_nom_5"/>
    <linearGradient id="Dégradé_sans_nom_5-4" data-name="Dégradé sans nom 5" x1="-4941.1" y1="-174.1" x2="-4940.1" y2="-173.8" xlink:href="#Dégradé_sans_nom_5"/>
    <linearGradient id="Dégradé_sans_nom_3" data-name="Dégradé sans nom 3" x1="-4876" y1="-122.5" x2="-4876.2" y2="-122.6" gradientTransform="translate(105835.1 1665.7) scale(21.7 13.3)" gradientUnits="userSpaceOnUse">
      <stop offset="0" stop-color="#008374"/>
      <stop offset="1" stop-color="#006a59"/>
    </linearGradient>
    <linearGradient id="Dégradé_sans_nom_4" data-name="Dégradé sans nom 4" x1="-4963.5" y1="-208.7" x2="-4963.8" y2="-208.6" gradientTransform="translate(171784 4373.4) scale(34.6 20.8)" gradientUnits="userSpaceOnUse">
      <stop offset="0" stop-color="#00aa89"/>
      <stop offset="1" stop-color="#009989"/>
    </linearGradient>
    <linearGradient id="Dégradé_sans_nom_3-2" data-name="Dégradé sans nom 3" x1="-4876" y1="-122.4" x2="-4876.3" y2="-122.5" xlink:href="#Dégradé_sans_nom_3"/>
    <linearGradient id="Dégradé_sans_nom_4-2" data-name="Dégradé sans nom 4" x1="-4963.4" y1="-208.5" x2="-4963.8" y2="-208.4" xlink:href="#Dégradé_sans_nom_4"/>
    <linearGradient id="Dégradé_sans_nom_3-3" data-name="Dégradé sans nom 3" x1="-4874.7" y1="-122.5" x2="-4875" y2="-122.6" xlink:href="#Dégradé_sans_nom_3"/>
    <linearGradient id="Dégradé_sans_nom_4-3" data-name="Dégradé sans nom 4" x1="-4962.7" y1="-208.7" x2="-4963" y2="-208.6" xlink:href="#Dégradé_sans_nom_4"/>
    <linearGradient id="Dégradé_sans_nom_3-4" data-name="Dégradé sans nom 3" x1="-4874.8" y1="-122.4" x2="-4875" y2="-122.5" xlink:href="#Dégradé_sans_nom_3"/>
    <linearGradient id="Dégradé_sans_nom_4-4" data-name="Dégradé sans nom 4" x1="-4962.6" y1="-208.5" x2="-4963" y2="-208.4" xlink:href="#Dégradé_sans_nom_4"/>
    <linearGradient id="Dégradé_sans_nom_3-5" data-name="Dégradé sans nom 3" x1="-4876" y1="-120.5" x2="-4876.2" y2="-120.5" xlink:href="#Dégradé_sans_nom_3"/>
    <linearGradient id="Dégradé_sans_nom_4-5" data-name="Dégradé sans nom 4" x1="-4963.5" y1="-207.4" x2="-4963.8" y2="-207.4" xlink:href="#Dégradé_sans_nom_4"/>
    <linearGradient id="Dégradé_sans_nom_3-6" data-name="Dégradé sans nom 3" x1="-4876" y1="-120.4" x2="-4876.3" y2="-120.5" xlink:href="#Dégradé_sans_nom_3"/>
    <linearGradient id="Dégradé_sans_nom_4-6" data-name="Dégradé sans nom 4" x1="-4963.4" y1="-207.2" x2="-4963.8" y2="-207.2" xlink:href="#Dégradé_sans_nom_4"/>
    <linearGradient id="Dégradé_sans_nom_3-7" data-name="Dégradé sans nom 3" x1="-4874.7" y1="-120.5" x2="-4875" y2="-120.5" xlink:href="#Dégradé_sans_nom_3"/>
    <linearGradient id="Dégradé_sans_nom_4-7" data-name="Dégradé sans nom 4" x1="-4962.7" y1="-207.4" x2="-4963" y2="-207.4" xlink:href="#Dégradé_sans_nom_4"/>
    <linearGradient id="Dégradé_sans_nom_3-8" data-name="Dégradé sans nom 3" x1="-4874.8" y1="-120.4" x2="-4875" y2="-120.5" xlink:href="#Dégradé_sans_nom_3"/>
    <linearGradient id="Dégradé_sans_nom_4-8" data-name="Dégradé sans nom 4" x1="-4962.6" y1="-207.2" x2="-4963" y2="-207.2" xlink:href="#Dégradé_sans_nom_4"/>
  </defs>
  <!-- Generator: Adobe Illustrator 28.7.1, SVG Export Plug-In . SVG Version: 1.2.0 Build 142)  -->
  <g>
    <g id="Calque_1">
      <rect class="cls-26" x="15.2" y="21.6" width="24.6" height="25.6"/>
      <rect class="cls-24" x="42.2" y="21.6" width="24.6" height="25.6"/>
      <rect class="cls-25" x="15.3" y="48.7" width="24.6" height="25.6"/>
      <rect class="cls-23" x="42.2" y="48.7" width="24.6" height="25.6"/>
      <g>
        <rect id="path-5" x="28.5" y="7.5" width="25" height="2"/>
        <rect id="path-5-2" class="cls-5" x="28.5" y="7.5" width="25" height="2"/>
      </g>
      <g>
        <path id="path-7" class="cls-3" d="M62.9,18.2v1.2H19.1v-1.2h43.7ZM58.1,14.5v1.2H22.1v-1.2h36ZM62.9,10.8v1.2H19.1v-1.2h43.7Z"/>
        <path id="path-7-2" class="cls-2" d="M62.9,18.2v1.2H19.1v-1.2h43.7ZM58.1,14.5v1.2H22.1v-1.2h36ZM62.9,10.8v1.2H19.1v-1.2h43.7Z"/>
      </g>
      <g>
        <path class="cls-1" d="M31.3,37.1c1.6-1,3.9-1.6,6.5-1.8v-11.4h-20.3v8.2c6,0,11.2,2.1,13.9,5h0ZM33.3,24.6c1.8,0,3.2,1.3,3.2,3s-1.4,3-3.2,3-3.2-1.3-3.2-3,1.4-3,3.2-3Z"/>
        <ellipse class="cls-6" cx="33.3" cy="27.5" rx="3.2" ry="3"/>
        <path class="cls-1" d="M32.6,39.1h5.1v-3.8c-2.5,0-4.8.7-6.5,1.8.6.6,1,1.3,1.3,2h0Z"/>
        <path class="cls-8" d="M32.6,39.1h5.1v-3.8c-2.5,0-4.8.7-6.5,1.8.6.6,1,1.3,1.3,2h0Z"/>
        <path class="cls-1" d="M31.3,37.1c-2.6-2.9-7.8-4.9-13.9-5v7h11.7c.5-.8,1.3-1.5,2.2-2Z"/>
        <path class="cls-7" d="M31.3,37.1c-2.6-2.9-7.8-4.9-13.9-5v7h11.7c.5-.8,1.3-1.5,2.2-2Z"/>
        <path class="cls-1" d="M31.3,37.1c-1,.6-1.7,1.3-2.2,2h3.5c-.3-.7-.8-1.4-1.3-2h0Z"/>
        <path class="cls-19" d="M31.3,37.1c-1,.6-1.7,1.3-2.2,2h3.5c-.3-.7-.8-1.4-1.3-2h0Z"/>
        <path class="cls-14" d="M31.3,37.1c-1,.6-1.7,1.3-2.2,2h3.5c-.3-.7-.8-1.4-1.3-2h0Z"/>
        <path class="cls-4" d="M16.5,23v9.1h.4v-8.8h21.3v11.9h.4v-12.3h-22.1Z"/>
        <path class="cls-4" d="M17.5,32.1v-8.2h20.3v11.4h.5v-11.9h-21.3v8.7h.5Z"/>
        <path class="cls-4" d="M38.2,35.3v4.3h-5.4c0,.1,0,.2,0,.3h5.7v-4.7h-.4,0Z"/>
        <path class="cls-4" d="M37.7,39.1h-5.1c0,.2.1.3.2.6h5.4v-4.3h-.5v3.8h0Z"/>
        <path class="cls-4" d="M28.6,40c0-.1,0-.2.1-.3h-11.8v-7.5h-.4v7.9h12.1Z"/>
        <path class="cls-4" d="M28.8,39.6c0-.2.2-.3.3-.6h-11.7v-7h-.5v7.5h11.8Z"/>
        <path class="cls-4" d="M28.8,39.6c0,.1,0,.2-.1.3h4.3c0-.1,0-.2,0-.3h-4.1Z"/>
        <path class="cls-4" d="M29.1,39.1c-.1.2-.2.3-.3.6h4c0-.2-.1-.3-.2-.6,0,0-3.5,0-3.5,0Z"/>
      </g>
      <g>
        <path class="cls-1" d="M58.2,37.1c1.6-1,3.9-1.6,6.5-1.8v-11.4h-20.3v8.2c6,0,11.2,2.1,13.9,5h0ZM60.2,24.6c1.8,0,3.2,1.3,3.2,3s-1.4,3-3.2,3-3.2-1.3-3.2-3,1.4-3,3.2-3Z"/>
        <ellipse class="cls-6" cx="60.2" cy="27.5" rx="3.2" ry="3"/>
        <path class="cls-1" d="M59.5,39.1h5.1v-3.8c-2.5,0-4.8.7-6.5,1.8.6.6,1,1.3,1.3,2h0Z"/>
        <path class="cls-16" d="M59.5,39.1h5.1v-3.8c-2.5,0-4.8.7-6.5,1.8.6.6,1,1.3,1.3,2h0Z"/>
        <path class="cls-1" d="M58.2,37.1c-2.6-2.9-7.8-4.9-13.9-5v7h11.7c.5-.8,1.3-1.5,2.2-2Z"/>
        <path class="cls-10" d="M58.2,37.1c-2.6-2.9-7.8-4.9-13.9-5v7h11.7c.5-.8,1.3-1.5,2.2-2Z"/>
        <path class="cls-1" d="M58.2,37.1c-1,.6-1.7,1.3-2.2,2h3.5c-.3-.7-.8-1.4-1.3-2h0Z"/>
        <path class="cls-22" d="M58.2,37.1c-1,.6-1.7,1.3-2.2,2h3.5c-.3-.7-.8-1.4-1.3-2h0Z"/>
        <path class="cls-15" d="M58.2,37.1c-1,.6-1.7,1.3-2.2,2h3.5c-.3-.7-.8-1.4-1.3-2h0Z"/>
        <path class="cls-4" d="M43.4,23v9.1h.4v-8.8h21.3v11.9h.4v-12.3h-22.1Z"/>
        <path class="cls-4" d="M44.3,32.1v-8.2h20.3v11.4h.5v-11.9h-21.3v8.7h.5Z"/>
        <path class="cls-4" d="M65.1,35.3v4.3h-5.4c0,.1,0,.2,0,.3h5.7v-4.7h-.4,0Z"/>
        <path class="cls-4" d="M64.6,39.1h-5.1c0,.2.1.3.2.6h5.4v-4.3h-.5v3.8h0Z"/>
        <path class="cls-4" d="M55.5,40c0-.1,0-.2.1-.3h-11.8v-7.5h-.4v7.9h12.1Z"/>
        <path class="cls-4" d="M55.7,39.6c0-.2.2-.3.3-.6h-11.7v-7h-.5v7.5h11.8Z"/>
        <path class="cls-4" d="M55.7,39.6c0,.1,0,.2-.1.3h4.3c0-.1,0-.2,0-.3h-4.1Z"/>
        <path class="cls-4" d="M56,39.1c-.1.2-.2.3-.3.6h4c0-.2-.1-.3-.2-.6,0,0-3.5,0-3.5,0Z"/>
      </g>
      <g>
        <path class="cls-1" d="M31.3,63.7c1.6-1,3.9-1.6,6.5-1.8v-11.4h-20.3v8.2c6,0,11.2,2.1,13.9,5h0ZM33.3,51.2c1.8,0,3.2,1.3,3.2,3s-1.4,3-3.2,3-3.2-1.3-3.2-3,1.4-3,3.2-3Z"/>
        <ellipse class="cls-6" cx="33.3" cy="54.2" rx="3.2" ry="3"/>
        <path class="cls-1" d="M32.6,65.8h5.1v-3.8c-2.5,0-4.8.7-6.5,1.8.6.6,1,1.3,1.3,2h0Z"/>
        <path class="cls-20" d="M32.6,65.8h5.1v-3.8c-2.5,0-4.8.7-6.5,1.8.6.6,1,1.3,1.3,2h0Z"/>
        <path class="cls-1" d="M31.3,63.7c-2.6-2.9-7.8-4.9-13.9-5v7h11.7c.5-.8,1.3-1.5,2.2-2Z"/>
        <path class="cls-12" d="M31.3,63.7c-2.6-2.9-7.8-4.9-13.9-5v7h11.7c.5-.8,1.3-1.5,2.2-2Z"/>
        <path class="cls-1" d="M31.3,63.7c-1,.6-1.7,1.3-2.2,2h3.5c-.3-.7-.8-1.4-1.3-2h0Z"/>
        <path class="cls-21" d="M31.3,63.7c-1,.6-1.7,1.3-2.2,2h3.5c-.3-.7-.8-1.4-1.3-2h0Z"/>
        <path class="cls-11" d="M31.3,63.7c-1,.6-1.7,1.3-2.2,2h3.5c-.3-.7-.8-1.4-1.3-2h0Z"/>
        <path class="cls-4" d="M16.5,49.6v9.1h.4v-8.8h21.3v11.9h.4v-12.3h-22.1Z"/>
        <path class="cls-4" d="M17.5,58.7v-8.2h20.3v11.4h.5v-11.9h-21.3v8.7h.5Z"/>
        <path class="cls-4" d="M38.2,62v4.3h-5.4c0,.1,0,.2,0,.3h5.7v-4.7h-.4,0Z"/>
        <path class="cls-4" d="M37.7,65.8h-5.1c0,.2.1.3.2.6h5.4v-4.3h-.5v3.8h0Z"/>
        <path class="cls-4" d="M28.6,66.6c0-.1,0-.2.1-.3h-11.8v-7.5h-.4v7.9h12.1Z"/>
        <path class="cls-4" d="M28.8,66.3c0-.2.2-.3.3-.6h-11.7v-7h-.5v7.5h11.8Z"/>
        <path class="cls-4" d="M28.8,66.3c0,.1,0,.2-.1.3h4.3c0-.1,0-.2,0-.3h-4.1Z"/>
        <path class="cls-4" d="M29.1,65.8c-.1.2-.2.3-.3.6h4c0-.2-.1-.3-.2-.6,0,0-3.5,0-3.5,0Z"/>
      </g>
      <g>
        <path class="cls-1" d="M58.2,63.7c1.6-1,3.9-1.6,6.5-1.8v-11.4h-20.3v8.2c6,0,11.2,2.1,13.9,5h0ZM60.2,51.2c1.8,0,3.2,1.3,3.2,3s-1.4,3-3.2,3-3.2-1.3-3.2-3,1.4-3,3.2-3Z"/>
        <ellipse class="cls-6" cx="60.2" cy="54.2" rx="3.2" ry="3"/>
        <path class="cls-1" d="M59.5,65.8h5.1v-3.8c-2.5,0-4.8.7-6.5,1.8.6.6,1,1.3,1.3,2h0Z"/>
        <path class="cls-18" d="M59.5,65.8h5.1v-3.8c-2.5,0-4.8.7-6.5,1.8.6.6,1,1.3,1.3,2h0Z"/>
        <path class="cls-1" d="M58.2,63.7c-2.6-2.9-7.8-4.9-13.9-5v7h11.7c.5-.8,1.3-1.5,2.2-2Z"/>
        <path class="cls-9" d="M58.2,63.7c-2.6-2.9-7.8-4.9-13.9-5v7h11.7c.5-.8,1.3-1.5,2.2-2Z"/>
        <path class="cls-1" d="M58.2,63.7c-1,.6-1.7,1.3-2.2,2h3.5c-.3-.7-.8-1.4-1.3-2h0Z"/>
        <path class="cls-17" d="M58.2,63.7c-1,.6-1.7,1.3-2.2,2h3.5c-.3-.7-.8-1.4-1.3-2h0Z"/>
        <path class="cls-13" d="M58.2,63.7c-1,.6-1.7,1.3-2.2,2h3.5c-.3-.7-.8-1.4-1.3-2h0Z"/>
        <path class="cls-4" d="M43.4,49.6v9.1h.4v-8.8h21.3v11.9h.4v-12.3h-22.1Z"/>
        <path class="cls-4" d="M44.3,58.7v-8.2h20.3v11.4h.5v-11.9h-21.3v8.7h.5Z"/>
        <path class="cls-4" d="M65.1,62v4.3h-5.4c0,.1,0,.2,0,.3h5.7v-4.7h-.4,0Z"/>
        <path class="cls-4" d="M64.6,65.8h-5.1c0,.2.1.3.2.6h5.4v-4.3h-.5v3.8h0Z"/>
        <path class="cls-4" d="M55.5,66.6c0-.1,0-.2.1-.3h-11.8v-7.5h-.4v7.9h12.1Z"/>
        <path class="cls-4" d="M55.7,66.3c0-.2.2-.3.3-.6h-11.7v-7h-.5v7.5h11.8Z"/>
        <path class="cls-4" d="M55.7,66.3c0,.1,0,.2-.1.3h4.3c0-.1,0-.2,0-.3h-4.1Z"/>
        <path class="cls-4" d="M56,65.8c-.1.2-.2.3-.3.6h4c0-.2-.1-.3-.2-.6,0,0-3.5,0-3.5,0Z"/>
      </g>
      <g>
        <path id="path-7-2" data-name="path-7" class="cls-3" d="M31.7,45.1v.7h-15.1v-.7h15.1ZM29.1,43.1v.7h-12.5v-.7h12.5ZM31.7,41.1v.7h-15.1v-.7h15.1Z"/>
        <path id="path-7-2-2" data-name="path-7-2" class="cls-2" d="M31.7,45.1v.7h-15.1v-.7h15.1ZM29.1,43.1v.7h-12.5v-.7h12.5ZM31.7,41.1v.7h-15.1v-.7h15.1Z"/>
      </g>
      <g>
        <path id="path-7-3" data-name="path-7" class="cls-3" d="M58.5,45.1v.7h-15.1v-.7h15.1ZM55.9,43.1v.7h-12.5v-.7h12.5ZM58.5,41.1v.7h-15.1v-.7h15.1Z"/>
        <path id="path-7-2-3" data-name="path-7-2" class="cls-2" d="M58.5,45.1v.7h-15.1v-.7h15.1ZM55.9,43.1v.7h-12.5v-.7h12.5ZM58.5,41.1v.7h-15.1v-.7h15.1Z"/>
      </g>
    </g>
  </g>
</svg>