<?xml version="1.0" encoding="UTF-8"?>
<svg id="Calque_1" data-name="Calque 1" xmlns="http://www.w3.org/2000/svg" xmlns:xlink="http://www.w3.org/1999/xlink" version="1.1" viewBox="0 0 82 60">
  <defs>
    <style>
      .cls-1 {
        fill: url(#Dégradé_sans_nom_3);
      }

      .cls-1, .cls-2, .cls-3, .cls-4, .cls-5 {
        stroke-width: 0px;
      }

      .cls-2, .cls-4 {
        fill: #000;
      }

      .cls-3 {
        fill-opacity: .8;
      }

      .cls-3, .cls-5 {
        fill: #fff;
      }

      .cls-4, .cls-5 {
        fill-rule: evenodd;
      }

      .cls-5 {
        fill-opacity: .3;
      }
    </style>
    <linearGradient id="Dégradé_sans_nom_3" data-name="Dégradé sans nom 3" x1="-1285.2" y1="1062.6" x2="-1284.2" y2="1062.7" gradientTransform="translate(21880 -5266) scale(17 5)" gradientUnits="userSpaceOnUse">
      <stop offset="0" stop-color="#00a09d"/>
      <stop offset="1" stop-color="#00e2ff"/>
    </linearGradient>
  </defs>
  <g>
    <rect id="path-5" class="cls-2" x="5" y="33.7" width="15.8" height="2.2"/>
    <rect id="path-5-2" data-name="path-5" class="cls-3" x="5" y="33.7" width="15.8" height="2.2"/>
  </g>
  <g>
    <rect id="path-5-3" data-name="path-5" class="cls-2" x="23.8" y="33.6" width="15.8" height="2.2"/>
    <rect id="path-5-4" data-name="path-5" class="cls-3" x="23.8" y="33.6" width="15.8" height="2.2"/>
  </g>
  <g>
    <rect id="path-5-5" data-name="path-5" class="cls-2" x="42.4" y="33.5" width="15.8" height="2.2"/>
    <rect id="path-5-6" data-name="path-5" class="cls-3" x="42.4" y="33.5" width="15.8" height="2.2"/>
  </g>
  <g>
    <rect id="path-5-7" data-name="path-5" class="cls-2" x="61.6" y="33.4" width="15.8" height="2.2"/>
    <rect id="path-5-8" data-name="path-5" class="cls-3" x="61.6" y="33.4" width="15.8" height="2.2"/>
  </g>
  <g>
    <path id="path-7" class="cls-4" d="M63,23.9v1.2H19.3v-1.2h43.7ZM58.3,20.2v1.2H22.3v-1.2h36ZM63,16.5v1.2H19.3v-1.2h43.7Z"/>
    <path id="path-7-2" data-name="path-7" class="cls-5" d="M63,23.9v1.2H19.3v-1.2h43.7ZM58.3,20.2v1.2H22.3v-1.2h36ZM63,16.5v1.2H19.3v-1.2h43.7Z"/>
  </g>
  <rect class="cls-1" x="32.4" y="44.9" width="17" height="5"/>
</svg>