<?xml version="1.0" encoding="UTF-8"?>
<svg xmlns="http://www.w3.org/2000/svg" version="1.1" viewBox="0 0 82 60">
  <defs>
    <style>
      .cls-1 {
        fill: #79d1f2;
      }

      .cls-2 {
        fill: #f3ec60;
      }

      .cls-3 {
        fill: #fff;
        fill-opacity: .8;
      }

      .cls-3, .cls-4 {
        fill-rule: evenodd;
      }
    </style>
  </defs>
  <!-- Generator: Adobe Illustrator 28.6.0, SVG Export Plug-In . SVG Version: 1.2.0 Build 709)  -->
  <g>
    <g id="Calque_1">
      <rect id="path-5" x="22.2" y="11.3" width="36.3" height="2"/>
      <g>
        <rect x="34" y="20.8" width="12" height="1"/>
        <rect x="31.4" y="17.8" width="17" height="1"/>
      </g>
      <g>
        <path id="path-9" class="cls-4" d="M38.9,26.3v4.7h-11.7v-4.7h11.7Z"/>
        <path id="path-9-2" class="cls-3" d="M38.9,26.3v4.7h-11.7v-4.7h11.7Z"/>
      </g>
      <g>
        <path id="path-9-2" data-name="path-9" class="cls-4" d="M52.9,26.3v4.7h-11.7v-4.7h11.7Z"/>
        <path id="path-9-2-2" data-name="path-9-2" class="cls-3" d="M52.9,26.3v4.7h-11.7v-4.7h11.7Z"/>
      </g>
      <g>
        <path class="cls-1" d="M72.3,37.7H10.4v22.1h61.9v-22.1ZM59.8,52.1c-3.1,0-5.7-2.5-5.7-5.7s2.5-5.7,5.7-5.7,5.7,2.5,5.7,5.7-2.5,5.7-5.7,5.7Z"/>
        <circle class="cls-2" cx="59.8" cy="46.4" r="5.7" transform="translate(-15.3 55.9) rotate(-45)"/>
      </g>
    </g>
  </g>
</svg>