<?xml version="1.0" encoding="UTF-8"?>
<svg xmlns="http://www.w3.org/2000/svg" xmlns:xlink="http://www.w3.org/1999/xlink" version="1.1" viewBox="0 0 82 60">
  <defs>
    <style>
      .cls-1 {
        fill: #79d1f2;
      }

      .cls-2 {
        fill-opacity: .3;
      }

      .cls-2, .cls-3 {
        fill-rule: evenodd;
      }

      .cls-2, .cls-4, .cls-5 {
        fill: #fff;
      }

      .cls-6 {
        fill: #f3ec60;
      }

      .cls-7 {
        fill: url(#Dégradé_sans_nom_4);
      }

      .cls-8 {
        fill: url(#Dégradé_sans_nom_2);
      }

      .cls-9 {
        fill: url(#Dégradé_sans_nom_3);
      }

      .cls-10 {
        fill: url(#Dégradé_sans_nom);
      }

      .cls-5 {
        fill-opacity: .8;
      }
    </style>
    <linearGradient id="Dégradé_sans_nom" data-name="Dégradé sans nom" x1="-5752.4" y1="655" x2="-5752.9" y2="655.1" gradientTransform="translate(124837.7 8751) scale(21.7 -13.3)" gradientUnits="userSpaceOnUse">
      <stop offset="0" stop-color="#008374"/>
      <stop offset="1" stop-color="#006a59"/>
    </linearGradient>
    <linearGradient id="Dégradé_sans_nom_2" data-name="Dégradé sans nom 2" x1="-5854.9" y1="755.3" x2="-5855.6" y2="755.1" gradientTransform="translate(202628.8 15741.2) scale(34.6 -20.8)" gradientUnits="userSpaceOnUse">
      <stop offset="0" stop-color="#00aa89"/>
      <stop offset="1" stop-color="#009989"/>
    </linearGradient>
    <linearGradient id="Dégradé_sans_nom_3" data-name="Dégradé sans nom 3" x1="-5752.4" y1="654.8" x2="-5753" y2="654.9" gradientTransform="translate(124837.7 8751) scale(21.7 -13.3)" gradientUnits="userSpaceOnUse">
      <stop offset="0" stop-color="#008374"/>
      <stop offset="1" stop-color="#006a59"/>
    </linearGradient>
    <linearGradient id="Dégradé_sans_nom_4" data-name="Dégradé sans nom 4" x1="-5854.8" y1="755" x2="-5855.4" y2="754.8" gradientTransform="translate(202628.8 15741.2) scale(34.6 -20.8)" gradientUnits="userSpaceOnUse">
      <stop offset="0" stop-color="#00aa89"/>
      <stop offset="1" stop-color="#009989"/>
    </linearGradient>
  </defs>
  <!-- Generator: Adobe Illustrator 28.7.1, SVG Export Plug-In . SVG Version: 1.2.0 Build 142)  -->
  <g>
    <g id="Calque_1">
      <g>
        <path class="cls-1" d="M20.4,41.5c3.4-2.1,7.8-3.4,12.9-3.6V14.4H-7.2v16.9c12,0,22.3,4.2,27.7,10.2h0ZM24.5,15.8c3.5,0,6.4,2.8,6.4,6.1s-2.9,6.1-6.4,6.1-6.4-2.8-6.4-6.1,2.9-6.1,6.4-6.1Z"/>
        <ellipse class="cls-6" cx="24.5" cy="21.9" rx="6.4" ry="6.1"/>
        <path class="cls-1" d="M23.1,45.7h10.2v-7.8c-5,.3-9.5,1.5-12.9,3.6,1.1,1.3,2.1,2.7,2.7,4.2Z"/>
        <path class="cls-10" d="M23.1,45.7h10.2v-7.8c-5,.3-9.5,1.5-12.9,3.6,1.1,1.3,2.1,2.7,2.7,4.2Z"/>
        <path class="cls-1" d="M20.4,41.5c-5.3-6-15.6-10.1-27.7-10.2v14.4h23.3c1-1.5,2.5-2.9,4.3-4.2h0Z"/>
        <path class="cls-8" d="M20.4,41.5c-5.3-6-15.6-10.1-27.7-10.2v14.4h23.3c1-1.5,2.5-2.9,4.3-4.2h0Z"/>
        <path class="cls-1" d="M20.4,41.5c-2,1.1-3.4,2.7-4.3,4.2h7c-.6-1.4-1.5-2.8-2.7-4.2Z"/>
        <path class="cls-9" d="M20.4,41.5c-2,1.1-3.4,2.7-4.3,4.2h7c-.6-1.4-1.5-2.8-2.7-4.2Z"/>
        <path class="cls-7" d="M20.4,41.5c-2,1.1-3.4,2.7-4.3,4.2h7c-.6-1.4-1.5-2.8-2.7-4.2Z"/>
        <path class="cls-4" d="M-9,12.6v18.7h.8V13.4h42.5v24.4h.8V12.6H-9Z"/>
        <path class="cls-4" d="M-7.2,31.3V14.4h40.5v23.5h1V13.4H-8.2v17.9h1Z"/>
        <path class="cls-4" d="M34.3,37.9v8.9h-10.8c0,.3,0,.4,0,.7h11.5v-9.6s-.8,0-.8,0Z"/>
        <path class="cls-4" d="M33.3,45.7h-10.2c0,.4.3.7.4,1.1h10.8v-8.9h-1s0,7.8,0,7.8Z"/>
        <path class="cls-4" d="M15.1,47.5c0-.3,0-.4.3-.7H-8.2v-15.5h-.8v16.2H15.2h-.1Z"/>
        <path class="cls-4" d="M15.4,46.8c0-.4.4-.7.6-1.1H-7.3v-14.4h-1v15.5s23.7,0,23.7,0Z"/>
        <path class="cls-4" d="M15.4,46.8c0,.3-.3.4-.3.7h8.5c0-.3,0-.4,0-.7h-8.1Z"/>
        <path class="cls-4" d="M16.1,45.7c-.3.4-.4.7-.6,1.1h8.1c0-.4-.3-.7-.4-1.1h-7.1Z"/>
      </g>
      <g>
        <rect id="path-5" x="53" y="23" width="25" height="2"/>
        <rect id="path-5-2" class="cls-5" x="53" y="23" width="25" height="2"/>
      </g>
      <g>
        <path id="path-7" class="cls-3" d="M55,30.1v-1s23-.3,23-.3v1s-23,.3-23,.3ZM59,33.1v-1s19-.2,19-.2v1s-19,.2-19,.2ZM55,36.1v-1s23-.3,23-.3v1s-23,.3-23,.3Z"/>
        <path id="path-7-2" class="cls-2" d="M55,30.1v-1s23-.3,23-.3v1s-23,.3-23,.3ZM59,33.1v-1s19-.2,19-.2v1s-19,.2-19,.2ZM55,36.1v-1s23-.3,23-.3v1s-23,.3-23,.3Z"/>
      </g>
    </g>
  </g>
</svg>