<?xml version="1.0" encoding="UTF-8"?>
<svg id="Calque_1" data-name="Calque 1" xmlns="http://www.w3.org/2000/svg" xmlns:xlink="http://www.w3.org/1999/xlink" version="1.1" viewBox="0 0 82 60">
  <defs>
    <style>
      .cls-1 {
        fill-opacity: .3;
      }

      .cls-1, .cls-2, .cls-3, .cls-4, .cls-5, .cls-6, .cls-7, .cls-8, .cls-9, .cls-10, .cls-11, .cls-12 {
        stroke-width: 0px;
      }

      .cls-1, .cls-10, .cls-11 {
        fill: #fff;
      }

      .cls-1, .cls-12 {
        fill-rule: evenodd;
      }

      .cls-2 {
        fill: url(#Dégradé_sans_nom_2);
      }

      .cls-3 {
        fill: url(#Dégradé_sans_nom_3);
      }

      .cls-4, .cls-12 {
        fill: #000;
      }

      .cls-5 {
        fill: url(#Dégradé_sans_nom);
        isolation: isolate;
        opacity: .4;
      }

      .cls-6 {
        fill: #79d1f2;
      }

      .cls-7 {
        fill: url(#Dégradé_sans_nom_2-2);
      }

      .cls-8 {
        fill: url(#Dégradé_sans_nom_3-2);
      }

      .cls-9 {
        fill: #f3ec60;
      }

      .cls-10 {
        fill-opacity: .8;
      }
    </style>
    <linearGradient id="Dégradé_sans_nom" data-name="Dégradé sans nom" x1="-4054.9" y1="777" x2="-4052.4" y2="776.2" gradientTransform="translate(121650 13235) scale(30 -17)" gradientUnits="userSpaceOnUse">
      <stop offset="0" stop-color="#00e2ff"/>
      <stop offset="1" stop-color="#00a09d"/>
    </linearGradient>
    <linearGradient id="Dégradé_sans_nom_2" data-name="Dégradé sans nom 2" x1="-3998.9" y1="732.2" x2="-3999.3" y2="732.3" gradientTransform="translate(86832.5 9769) scale(21.7 -13.3)" gradientUnits="userSpaceOnUse">
      <stop offset="0" stop-color="#008374"/>
      <stop offset="1" stop-color="#006a59"/>
    </linearGradient>
    <linearGradient id="Dégradé_sans_nom_3" data-name="Dégradé sans nom 3" x1="-4070.9" y1="804.5" x2="-4071.4" y2="804.4" gradientTransform="translate(140939.2 16759.2) scale(34.6 -20.8)" gradientUnits="userSpaceOnUse">
      <stop offset="0" stop-color="#00aa89"/>
      <stop offset="1" stop-color="#009989"/>
    </linearGradient>
    <linearGradient id="Dégradé_sans_nom_2-2" data-name="Dégradé sans nom 2" x1="-3998.9" y1="732.1" x2="-3999.3" y2="732.2" xlink:href="#Dégradé_sans_nom_2"/>
    <linearGradient id="Dégradé_sans_nom_3-2" data-name="Dégradé sans nom 3" x1="-4070.8" y1="804.2" x2="-4071.3" y2="804.1" xlink:href="#Dégradé_sans_nom_3"/>
  </defs>
  <rect class="cls-5" x=".1" y="17.9" width="81.7" height="28.4"/>
  <g>
    <path class="cls-6" d="M63.8,32.2c2.4-1.5,5.6-2.4,9.2-2.6V12.8h-29v12.1c8.6,0,16,3,19.8,7.3ZM66.7,13.8c2.5,0,4.6,2,4.6,4.4s-2.1,4.4-4.6,4.4-4.6-2-4.6-4.4,2.1-4.4,4.6-4.4Z"/>
    <ellipse class="cls-9" cx="66.7" cy="18.2" rx="4.6" ry="4.4"/>
    <path class="cls-6" d="M65.7,35.2h7.3v-5.6c-3.6.2-6.8,1.1-9.2,2.6.8.9,1.5,1.9,1.9,3Z"/>
    <path class="cls-2" d="M65.7,35.2h7.3v-5.6c-3.6.2-6.8,1.1-9.2,2.6.8.9,1.5,1.9,1.9,3Z"/>
    <path class="cls-6" d="M63.8,32.2c-3.8-4.3-11.2-7.2-19.8-7.3v10.3h16.7c.7-1.1,1.8-2.1,3.1-3Z"/>
    <path class="cls-3" d="M63.8,32.2c-3.8-4.3-11.2-7.2-19.8-7.3v10.3h16.7c.7-1.1,1.8-2.1,3.1-3Z"/>
    <path class="cls-6" d="M63.8,32.2c-1.4.8-2.4,1.9-3.1,3h5c-.4-1-1.1-2-1.9-3Z"/>
    <path class="cls-7" d="M63.8,32.2c-1.4.8-2.4,1.9-3.1,3h5c-.4-1-1.1-2-1.9-3Z"/>
    <path class="cls-8" d="M63.8,32.2c-1.4.8-2.4,1.9-3.1,3h5c-.4-1-1.1-2-1.9-3Z"/>
    <path class="cls-11" d="M42.7,11.5v13.4c.2,0,.4,0,.6,0v-12.8h30.4v17.5c.1,0,.2,0,.3,0s.2,0,.3,0V11.5h-31.6Z"/>
    <path class="cls-11" d="M44,24.9v-12.1h29v16.8c.2,0,.5,0,.7,0V12.1h-30.4v12.8c.1,0,.2,0,.3,0s.3,0,.4,0Z"/>
    <path class="cls-11" d="M73.7,29.6v6.4h-7.7c0,.2.1.3.1.5h8.2v-6.9c-.1,0-.2,0-.3,0s-.2,0-.3,0Z"/>
    <path class="cls-11" d="M73,35.2h-7.3c.1.3.2.5.3.8h7.7v-6.4c-.2,0-.5,0-.7,0v5.6Z"/>
    <path class="cls-11" d="M60,36.5c0-.2.1-.3.2-.5h-16.9v-11.1c-.2,0-.4,0-.6,0v11.6h17.3Z"/>
    <path class="cls-11" d="M60.2,36c.1-.3.3-.5.4-.8h-16.7v-10.3c-.1,0-.3,0-.4,0s-.2,0-.3,0v11.1h16.9Z"/>
    <path class="cls-11" d="M60.2,36c0,.2-.2.3-.2.5h6.1c0-.2,0-.3-.1-.5h-5.8Z"/>
    <path class="cls-11" d="M60.7,35.2c-.2.3-.3.5-.4.8h5.8c0-.3-.2-.5-.3-.8h-5Z"/>
  </g>
  <g>
    <rect id="path-5" class="cls-4" x="7" y="23" width="25" height="2"/>
    <rect id="path-5-2" class="cls-10" x="7" y="23" width="25" height="2"/>
  </g>
  <g>
    <path id="path-7" class="cls-12" d="M30,35v1H7v-1h23ZM26,32v1H7v-1h19ZM30,29v1H7v-1h23Z"/>
    <path id="path-7-2" class="cls-1" d="M30,35v1H7v-1h23ZM26,32v1H7v-1h19ZM30,29v1H7v-1h23Z"/>
  </g>
</svg>