<?xml version="1.0" encoding="UTF-8"?>
<svg id="Calque_1" data-name="Calque 1" xmlns="http://www.w3.org/2000/svg" xmlns:xlink="http://www.w3.org/1999/xlink" version="1.1" viewBox="0 0 82 60">
  <defs>
    <style>
      .cls-1 {
        fill-opacity: .3;
      }

      .cls-1, .cls-2, .cls-3, .cls-4, .cls-5, .cls-6, .cls-7, .cls-8, .cls-9, .cls-10, .cls-11 {
        stroke-width: 0px;
      }

      .cls-1, .cls-9, .cls-10 {
        fill: #fff;
      }

      .cls-1, .cls-11 {
        fill-rule: evenodd;
      }

      .cls-2 {
        fill: none;
      }

      .cls-3, .cls-11 {
        fill: #000;
      }

      .cls-4 {
        fill: url(#Dégradé_sans_nom);
        isolation: isolate;
        opacity: .4;
      }

      .cls-5 {
        fill: #79d1f2;
      }

      .cls-6 {
        fill: #009989;
      }

      .cls-7 {
        fill: #f3ec60;
      }

      .cls-8 {
        fill: #008374;
      }

      .cls-9 {
        fill-opacity: .8;
      }
    </style>
    <linearGradient id="Dégradé_sans_nom" data-name="Dégradé sans nom" x1="-2703.5" y1="102.8" x2="-2701" y2="103.6" gradientTransform="translate(81108 -1723) scale(30 17)" gradientUnits="userSpaceOnUse">
      <stop offset="0" stop-color="#00e2ff"/>
      <stop offset="1" stop-color="#00a09d"/>
    </linearGradient>
  </defs>
  <rect class="cls-4" x=".1" y="17.9" width="81.7" height="28.4"/>
  <g>
    <path class="cls-2" d="M0,0v25.5c1.8-.3,3.7-.5,5.7-.6v-13.4h31.6v18.1c7.8,0,14,3.9,14,8.7s-6.4,8.7-14.3,8.7-7.3-.9-9.9-2.4c-3.7,4.6-11.5,7.7-20.5,7.7s-4.5-.2-6.6-.6v8.3h82V0H0Z"/>
    <path class="cls-5" d="M26.8,32.2c2.4-1.5,5.6-2.4,9.2-2.6V12.8H7v12.1c8.6,0,16,3,19.8,7.3ZM29.7,13.8c2.5,0,4.6,2,4.6,4.4s-2.1,4.4-4.6,4.4-4.6-2-4.6-4.4,2.1-4.4,4.6-4.4Z"/>
    <ellipse class="cls-7" cx="29.7" cy="18.2" rx="4.6" ry="4.4"/>
    <path class="cls-8" d="M36,35.2v-5.6c-3.6.2-6.8,1.1-9.2,2.6.8.9,1.5,1.9,1.9,3h7.3Z"/>
    <path class="cls-6" d="M26.8,32.2c-3.8-4.3-11.2-7.2-19.8-7.3v10.3h16.7c.7-1.1,1.8-2.1,3.1-3Z"/>
    <path class="cls-6" d="M23.7,35.2h5c-.4-1-1.1-2-1.9-3-1.4.8-2.4,1.9-3.1,3Z"/>
    <path class="cls-10" d="M6.3,12.1h30.4v17.5c.1,0,.2,0,.3,0s.2,0,.3,0V11.5H5.7v13.4c.2,0,.4,0,.6,0v-12.8Z"/>
    <path class="cls-10" d="M7,24.9v-12.1h29v16.8c.2,0,.5,0,.7,0V12.1H6.3v12.8c.1,0,.2,0,.3,0s.3,0,.4,0Z"/>
    <path class="cls-10" d="M36.7,29.6v6.4h-7.7c0,.2.1.3.1.5h8.2v-6.9c-.1,0-.2,0-.3,0s-.2,0-.3,0Z"/>
    <path class="cls-10" d="M36,35.2h-7.3c.1.3.2.5.3.8h7.7v-6.4c-.2,0-.5,0-.7,0v5.6Z"/>
    <path class="cls-10" d="M23,36.5c0-.2.1-.3.2-.5H6.3v-11.1c-.2,0-.4,0-.6,0v11.6h17.3Z"/>
    <path class="cls-10" d="M7,35.2v-10.3c-.1,0-.3,0-.4,0s-.2,0-.3,0v11.1h16.9c.1-.3.3-.5.4-.8H7Z"/>
    <path class="cls-10" d="M29,36h-5.8c0,.2-.2.3-.2.5h6.1c0-.2,0-.3-.1-.5Z"/>
    <path class="cls-10" d="M28.7,35.2h-5c-.2.3-.3.5-.4.8h5.8c0-.3-.2-.5-.3-.8Z"/>
  </g>
  <g>
    <rect id="path-5" class="cls-3" x="43" y="23" width="25" height="2"/>
    <rect id="path-5-2" class="cls-9" x="43" y="23" width="25" height="2"/>
  </g>
  <g>
    <path id="path-7" class="cls-11" d="M66,35v1h-23v-1h23ZM62,32v1h-19v-1h19ZM66,29v1h-23v-1h23Z"/>
    <path id="path-7-2" class="cls-1" d="M66,35v1h-23v-1h23ZM62,32v1h-19v-1h19ZM66,29v1h-23v-1h23Z"/>
  </g>
</svg>