<?xml version="1.0" encoding="UTF-8"?>
<svg id="Calque_1" xmlns="http://www.w3.org/2000/svg" version="1.1" viewBox="0 0 1000 1000">
  <!-- Generator: Adobe Illustrator 29.0.0, SVG Export Plug-In . SVG Version: 2.1.0 Build 186)  -->
  <defs>
    <style>
      .st0 {
        fill: #255aef;
      }
    </style>
  </defs>
  <path class="st0" d="M68.6,554c9.9-5.7,21.9-7.1,32.9-3.8l95.2,28.9c-1.4-11.9-2.1-24-2.1-36.3,0-172,140-312,312-312v71.3c0,11.9,14.2,18.1,22.9,9.9l154-144.2c5.7-5.4,5.7-14.5,0-19.9L529.5,3.7c-8.7-8.2-22.9-2-22.9,9.9v71.3c-122.3,0-237.3,47.6-323.8,134.1-86.5,86.5-134.1,201.5-134.1,323.8s.4,22.7,1.2,34c3.2-9.5,9.9-17.7,18.6-22.8Z"/>
  <path class="st0" d="M735.3,916.5c-10-5.7-17.2-15.5-19.8-26.6l-22.6-97c-52,38.9-116.5,61.9-186.3,61.9-115.3,0-216.1-62.8-270.1-156l61.7-35.6c10.3-6,8.6-21.4-2.9-24.8l-201.9-61.2c-7.5-2.3-15.4,2.3-17.2,9.9l-47.9,205.5c-2.7,11.6,9.8,20.9,20.1,14.9l61.6-35.6c19.8,34.2,44.2,66,72.9,94.7,86.5,86.5,201.5,134.1,323.8,134.1s182.5-27.8,258-79.4c-9.9,2.1-20.4.4-29.3-4.7Z"/>
  <path class="st0" d="M964.8,807.4l-61.6-35.6c39.9-68.9,61.2-147.3,61.2-229,0-122.3-47.6-237.3-134.1-323.8-37.1-37-79.4-67-125.2-89.1,6.9,7.6,10.7,17.6,10.7,27.9s-4.8,22.6-13.2,30.4l-72.6,68c110.8,47.9,188.5,158.3,188.5,286.5s-15.3,110-41.9,156l-61.7-35.6c-10.3-6-22.8,3.3-20.1,14.9l47.9,205.5c1.8,7.7,9.7,12.2,17.2,9.9l201.9-61.2c11.4-3.5,13.2-18.9,2.9-24.8Z"/>
</svg>