<?xml version="1.0" encoding="UTF-8"?>
<svg id="Calque_1" xmlns="http://www.w3.org/2000/svg" version="1.1" viewBox="0 0 709 88">
  <!-- Generator: Adobe Illustrator 29.0.0, SVG Export Plug-In . SVG Version: 2.1.0 Build 186)  -->
  <defs>
    <style>
      .st0 {
        fill: #255aef;
      }

      .st1 {
        fill: #fff;
      }
    </style>
  </defs>
  <path class="st1" d="M60,.5h11.8v85.9h-11.8v-11.7c-5.9,8.9-14.4,13.4-25.6,13.4s-17.6-3.5-24.3-10.4C3.4,71,0,62.5,0,52.6s3.3-18.4,10-25.3c6.7-6.9,14.8-10.4,24.3-10.4s19.7,4.5,25.6,13.4V.5ZM35.9,76.9c6.9,0,12.6-2.3,17.2-7,4.6-4.7,6.9-10.4,6.9-17.3s-2.3-12.6-6.9-17.3c-4.6-4.7-10.3-7-17.2-7s-12.5,2.3-17.1,7c-4.6,4.7-6.9,10.4-6.9,17.3s2.3,12.6,6.9,17.3c4.6,4.7,10.3,7,17.1,7Z"/>
  <path class="st1" d="M97.9,58c1.2,6.1,4,10.8,8.3,14.1,4.4,3.3,9.8,5,16.2,5s15.4-3.3,19.5-9.9l10,5.7c-6.6,10.2-16.5,15.3-29.8,15.3s-19.5-3.4-26.2-10.1c-6.7-6.7-10.1-15.2-10.1-25.5s3.3-18.7,9.9-25.5c6.6-6.8,15.1-10.2,25.6-10.2s18,3.5,24.3,10.5c6.3,7,9.4,15.4,9.4,25.3s-.1,3.5-.4,5.3h-56.8ZM121.4,28.1c-6.3,0-11.6,1.8-15.7,5.4-4.2,3.6-6.7,8.3-7.7,14.3h45.3c-1-6.4-3.5-11.3-7.6-14.6-4.1-3.3-8.8-5-14.2-5Z"/>
  <path class="st1" d="M176.1,36.8c0,2.6,1.3,4.6,4,6.2,2.7,1.5,5.8,2.9,9.5,3.9,3.7,1.1,7.4,2.2,11.1,3.3,3.7,1.1,6.9,3.1,9.5,6.2,2.6,3,3.9,6.9,3.9,11.6s-2.4,11.1-7.1,14.8c-4.7,3.7-10.8,5.6-18.2,5.6s-12.2-1.4-16.9-4.3c-4.7-2.9-8-6.7-10-11.5l10.2-5.8c1.1,3.3,3.1,5.8,6.1,7.7,3,1.9,6.5,2.8,10.7,2.8s7.1-.7,9.6-2.2c2.5-1.5,3.8-3.8,3.8-7s-1.3-4.7-3.9-6.3c-2.6-1.6-5.8-2.9-9.5-4-3.7-1.1-7.4-2.2-11.1-3.3-3.7-1.1-6.9-3.1-9.5-6-2.6-2.9-3.9-6.6-3.9-11.1s2.3-10.7,6.8-14.5c4.6-3.8,10.3-5.7,17.1-5.7s10.4,1.2,14.7,3.7c4.3,2.5,7.5,5.9,9.7,10.4l-9.9,5.6c-2.4-5.8-7.3-8.7-14.5-8.7s-6.2.8-8.5,2.3c-2.4,1.5-3.5,3.7-3.5,6.6Z"/>
  <path class="st1" d="M262.1,30.1h-18v36.7c0,3.3.7,5.7,2,7.1,1.3,1.4,3.3,2.1,6,2.2,2.7,0,6.1,0,10-.2v10.6c-10.3,1.4-17.8.5-22.6-2.5-4.8-3-7.2-8.7-7.2-17.1V30.1h-13.4v-11.4h13.4l.2-18.2,11.6-.8v19h18v11.4Z"/>
  <path class="st1" d="M386.1,88.2c-10.2,0-18.7-3.4-25.5-10.2-6.8-6.8-10.2-15.3-10.2-25.4s3.4-18.6,10.2-25.4c6.8-6.8,15.3-10.2,25.5-10.2s12.7,1.6,18,4.8c5.3,3.2,9.3,7.5,11.9,12.9l-9.9,5.7c-1.7-3.6-4.4-6.5-7.9-8.7-3.6-2.2-7.6-3.3-12.1-3.3-6.8,0-12.4,2.3-17,6.9-4.6,4.6-6.8,10.3-6.8,17.2s2.3,12.5,6.8,17.1c4.6,4.6,10.2,6.9,17,6.9s8.6-1.1,12.2-3.2c3.6-2.1,6.4-5,8.3-8.6l10,5.8c-2.9,5.3-7,9.6-12.5,12.8s-11.4,4.8-18,4.8Z"/>
  <path class="st1" d="M485.6,86.5h-14.6l-30.9-32.1v32.1h-11.8V.5h11.8v48l29.3-29.8h15.2l-32.4,32.8,33.5,35Z"/>
  <path class="st1" d="M507.6,9.8c-1.1,1-2.4,1.6-3.8,1.6s-2.7-.5-3.8-1.6c-1.1-1-1.6-2.3-1.6-3.9s.5-2.7,1.6-3.7c1.1-1,2.3-1.6,3.8-1.6s2.7.5,3.8,1.6c1.1,1,1.6,2.3,1.6,3.7s-.5,2.8-1.6,3.9Z"/>
  <rect class="st1" x="500.4" y="18.7" width="6.8" height="67.7"/>
  <path class="st1" d="M559,17.2c8,0,14.4,2.5,19.2,7.4,4.7,4.9,7.1,11.5,7.1,19.7v42.1h-6.9v-42.1c0-6.3-1.7-11.3-5.2-15-3.5-3.7-8.4-5.6-14.7-5.6s-12.6,2.3-17.1,6.9c-4.4,4.6-6.6,11.3-6.6,20.1v35.8h-6.8V18.7h6.8v12.9c4.9-9.6,13-14.4,24.3-14.4Z"/>
  <path class="st1" d="M636.4,7.6c-13.5-1.1-20.2,5.1-20.2,18.4v3.7h20.2v6.6h-20.2v50.2h-6.9v-50.2h-11.7v-6.6h11.7v-3.7c0-8.5,2.3-14.9,7-19.3,4.7-4.4,11.4-6.3,20.1-5.6v6.5Z"/>
  <path class="st1" d="M673.4,88c-9.9,0-18.4-3.4-25.3-10.2-6.9-6.8-10.4-15.2-10.4-25.1s3.5-18.3,10.4-25.1c6.9-6.8,15.3-10.2,25.3-10.2s18.2,3.4,25.1,10.2c6.9,6.8,10.4,15.2,10.4,25.1s-3.5,18.3-10.4,25.1c-6.9,6.8-15.3,10.2-25.1,10.2ZM653,73.1c5.6,5.6,12.4,8.4,20.4,8.4s14.8-2.8,20.3-8.4c5.5-5.6,8.3-12.4,8.3-20.5s-2.8-14.9-8.3-20.5c-5.5-5.6-12.3-8.4-20.3-8.4s-14.8,2.8-20.4,8.4c-5.6,5.6-8.3,12.4-8.3,20.5s2.8,14.9,8.3,20.5Z"/>
  <g>
    <path class="st0" d="M270.1,53c.8-.4,1.7-.6,2.6-.3l7.4,2.2c-.1-.9-.2-1.9-.2-2.8,0-13.4,10.9-24.3,24.3-24.3v5.6c0,.9,1.1,1.4,1.8.8l12-11.2c.4-.4.4-1.1,0-1.5l-12-11.2c-.7-.6-1.8-.2-1.8.8v5.6c-9.5,0-18.5,3.7-25.2,10.4-6.7,6.7-10.4,15.7-10.4,25.2s0,1.8,0,2.6c.3-.7.8-1.4,1.5-1.8Z"/>
    <path class="st0" d="M322.1,81.2c-.8-.4-1.3-1.2-1.5-2.1l-1.8-7.6c-4.1,3-9.1,4.8-14.5,4.8-9,0-16.8-4.9-21-12.2l4.8-2.8c.8-.5.7-1.7-.2-1.9l-15.7-4.8c-.6-.2-1.2.2-1.3.8l-3.7,16c-.2.9.8,1.6,1.6,1.2l4.8-2.8c1.5,2.7,3.4,5.1,5.7,7.4,6.7,6.7,15.7,10.4,25.2,10.4s14.2-2.2,20.1-6.2c-.8.2-1.6,0-2.3-.4Z"/>
    <path class="st0" d="M340,72.7l-4.8-2.8c3.1-5.4,4.8-11.5,4.8-17.8,0-9.5-3.7-18.5-10.4-25.2-2.9-2.9-6.2-5.2-9.8-6.9.5.6.8,1.4.8,2.2s-.4,1.8-1,2.4l-5.7,5.3c8.6,3.7,14.7,12.3,14.7,22.3s-1.2,8.6-3.3,12.1l-4.8-2.8c-.8-.5-1.8.3-1.6,1.2l3.7,16c.1.6.8,1,1.3.8l15.7-4.8c.9-.3,1-1.5.2-1.9Z"/>
  </g>
</svg>