<?xml version="1.0" encoding="UTF-8"?>
<svg xmlns="http://www.w3.org/2000/svg" version="1.1" viewBox="0 0 50 50">
  <defs>
    <style>
      .cls-1 {
        fill: #0e2328;
      }

      .cls-1, .cls-2, .cls-3 {
        stroke-width: 0px;
      }

      .cls-2 {
        fill: #35bfe5;
      }

      .cls-3 {
        fill: #fff;
      }
    </style>
  </defs>
  <path class="cls-1" d="M41.7,12.8l-14.4-8.2c-.7-.4-1.5-.6-2.3-.6s-1.6.2-2.3.6l-14.4,8.2c-1.4.8-2.3,2.3-2.3,3.9v16.4c0,.8.2,1.5.5,2.1h0s0,0,0,0c.4.8,1,1.4,1.8,1.8l14.4,8.2c1.4.8,3.2.8,4.6,0l14.4-8.2c.8-.4,1.4-1.1,1.8-1.8h0c.3-.6.5-1.4.5-2.1v-16.4c0-1.6-.9-3.1-2.3-3.9Z"/>
  <g>
    <path class="cls-3" d="M33,15h0c-.3.9-.6,1.8-1,2.6-.3.8-.6,1.6-.9,2.3-1,2.7-1.8,5-2.6,6.9-.8,1.9-1.6,3.5-2.4,4.7-.9,1.2-1.9,2.1-2.9,2.7-1.1.6-2.5.8-4.1.8h0v-3.9h0c.5,0,1,0,1.3,0,.4,0,.8-.1,1.1-.2.3-.1.6-.3.9-.5.3-.2.5-.5.8-.9.3-.3.5-.8.8-1.3.3-.5.5-1.1.8-1.8.3-.7.6-1.5.9-2.4.3-.9.7-1.9,1.1-3.1.3-.9.6-1.8,1-2.7.3-1,.7-2,1.1-3.2h0s4.1,0,4.1,0Z"/>
    <ellipse class="cls-2" cx="21.1" cy="17.1" rx="2.1" ry="2.1"/>
  </g>
</svg>