<?xml version="1.0" encoding="UTF-8"?>
<svg id="Calque_1" xmlns="http://www.w3.org/2000/svg" version="1.1" viewBox="0 0 120 15">
  <!-- Generator: Adobe Illustrator 29.0.0, SVG Export Plug-In . SVG Version: 2.1.0 Build 186)  -->
  <defs>
    <style>
      .st0 {
        fill: #255aef;
      }
    </style>
  </defs>
  <path d="M10.2-.1h2v14.5h-2v-2c-1,1.5-2.4,2.3-4.3,2.3s-3-.6-4.1-1.8C.7,11.8,0,10.4,0,8.7s.6-3.1,1.7-4.3c1.1-1.2,2.5-1.8,4.1-1.8s3.3.8,4.3,2.3V-.1ZM6.1,12.8c1.2,0,2.1-.4,2.9-1.2.8-.8,1.2-1.8,1.2-2.9s-.4-2.1-1.2-2.9c-.8-.8-1.8-1.2-2.9-1.2s-2.1.4-2.9,1.2c-.8.8-1.2,1.8-1.2,2.9s.4,2.1,1.2,2.9c.8.8,1.7,1.2,2.9,1.2Z"/>
  <path d="M16.7,9.6c.2,1,.7,1.8,1.4,2.4.7.6,1.7.8,2.7.8s2.6-.6,3.3-1.7l1.7,1c-1.1,1.7-2.8,2.6-5,2.6s-3.3-.6-4.4-1.7c-1.1-1.1-1.7-2.6-1.7-4.3s.6-3.2,1.7-4.3c1.1-1.1,2.6-1.7,4.3-1.7s3.1.6,4.1,1.8c1.1,1.2,1.6,2.6,1.6,4.3s0,.6,0,.9h-9.6ZM20.6,4.6c-1.1,0-2,.3-2.7.9-.7.6-1.1,1.4-1.3,2.4h7.7c-.2-1.1-.6-1.9-1.3-2.5-.7-.6-1.5-.8-2.4-.8Z"/>
  <path d="M29.9,6c0,.4.2.8.7,1,.5.3,1,.5,1.6.7.6.2,1.2.4,1.9.6.6.2,1.2.5,1.6,1,.4.5.7,1.2.7,2s-.4,1.9-1.2,2.5c-.8.6-1.8.9-3.1.9s-2.1-.2-2.9-.7c-.8-.5-1.4-1.1-1.7-1.9l1.7-1c.2.6.5,1,1,1.3.5.3,1.1.5,1.8.5s1.2-.1,1.6-.4c.4-.3.6-.6.6-1.2s-.2-.8-.7-1.1c-.4-.3-1-.5-1.6-.7-.6-.2-1.3-.4-1.9-.6-.6-.2-1.2-.5-1.6-1-.4-.5-.7-1.1-.7-1.9s.4-1.8,1.2-2.5c.8-.6,1.7-1,2.9-1s1.8.2,2.5.6c.7.4,1.3,1,1.6,1.8l-1.7.9c-.4-1-1.2-1.5-2.5-1.5s-1,.1-1.4.4c-.4.3-.6.6-.6,1.1Z"/>
  <path d="M44.5,4.9h-3.1v6.2c0,.6.1,1,.3,1.2.2.2.6.4,1,.4.5,0,1,0,1.7,0v1.8c-1.7.2-3,0-3.8-.4-.8-.5-1.2-1.5-1.2-2.9v-6.2h-2.3v-1.9h2.3V-.1s2-.1,2-.1v3.2h3.1v1.9Z"/>
  <path d="M65.4,14.7c-1.7,0-3.2-.6-4.3-1.7-1.1-1.2-1.7-2.6-1.7-4.3s.6-3.1,1.7-4.3c1.1-1.2,2.6-1.7,4.3-1.7s2.1.3,3.1.8c.9.5,1.6,1.3,2,2.2l-1.7,1c-.3-.6-.7-1.1-1.3-1.5-.6-.4-1.3-.6-2.1-.6-1.1,0-2.1.4-2.9,1.2-.8.8-1.2,1.8-1.2,2.9s.4,2.1,1.2,2.9c.8.8,1.7,1.2,2.9,1.2s1.5-.2,2.1-.5c.6-.4,1.1-.8,1.4-1.5l1.7,1c-.5.9-1.2,1.6-2.1,2.2s-1.9.8-3.1.8Z"/>
  <path d="M82.3,14.4h-2.5l-5.2-5.4v5.4h-2V-.1h2v8.1l5-5h2.6l-5.5,5.6,5.7,5.9Z"/>
  <path d="M86,1.5c-.2.2-.4.3-.6.3s-.5,0-.6-.3c-.2-.2-.3-.4-.3-.7s0-.5.3-.6c.2-.2.4-.3.6-.3s.5,0,.6.3c.2.2.3.4.3.6s0,.5-.3.7Z"/>
  <rect x="84.8" y="3" width="1.1" height="11.5"/>
  <path d="M94.7,2.7c1.4,0,2.4.4,3.2,1.3.8.8,1.2,1.9,1.2,3.3v7.1h-1.2v-7.1c0-1.1-.3-1.9-.9-2.5-.6-.6-1.4-.9-2.5-.9s-2.1.4-2.9,1.2c-.7.8-1.1,1.9-1.1,3.4v6.1h-1.1V3h1.1v2.2c.8-1.6,2.2-2.4,4.1-2.4Z"/>
  <path d="M107.8,1.1c-2.3-.2-3.4.9-3.4,3.1v.6h3.4v1.1h-3.4v8.5h-1.2V6h-2v-1.1h2v-.6c0-1.4.4-2.5,1.2-3.3.8-.7,1.9-1.1,3.4-1v1.1Z"/>
  <path d="M114.1,14.7c-1.7,0-3.1-.6-4.3-1.7-1.2-1.2-1.8-2.6-1.8-4.3s.6-3.1,1.8-4.3c1.2-1.2,2.6-1.7,4.3-1.7s3.1.6,4.3,1.7c1.2,1.2,1.8,2.6,1.8,4.3s-.6,3.1-1.8,4.3c-1.2,1.2-2.6,1.7-4.3,1.7ZM110.6,12.2c.9.9,2.1,1.4,3.5,1.4s2.5-.5,3.4-1.4c.9-.9,1.4-2.1,1.4-3.5s-.5-2.5-1.4-3.5c-.9-.9-2.1-1.4-3.4-1.4s-2.5.5-3.5,1.4c-.9.9-1.4,2.1-1.4,3.5s.5,2.5,1.4,3.5Z"/>
  <g>
    <path class="st0" d="M45.8,8.8c.1,0,.3,0,.4,0l1.3.4c0-.2,0-.3,0-.5,0-2.3,1.8-4.1,4.1-4.1v.9c0,.2.2.2.3.1l2-1.9c0,0,0-.2,0-.3l-2-1.9c-.1-.1-.3,0-.3.1v.9c-1.6,0-3.1.6-4.3,1.8-1.1,1.1-1.8,2.7-1.8,4.3s0,.3,0,.4c0-.1.1-.2.2-.3Z"/>
    <path class="st0" d="M54.6,13.6c-.1,0-.2-.2-.3-.4l-.3-1.3c-.7.5-1.5.8-2.5.8-1.5,0-2.8-.8-3.6-2.1l.8-.5c.1,0,.1-.3,0-.3l-2.7-.8c0,0-.2,0-.2.1l-.6,2.7c0,.2.1.3.3.2l.8-.5c.3.5.6.9,1,1.2,1.1,1.1,2.7,1.8,4.3,1.8s2.4-.4,3.4-1c-.1,0-.3,0-.4,0Z"/>
    <path class="st0" d="M57.6,12.1l-.8-.5c.5-.9.8-1.9.8-3,0-1.6-.6-3.1-1.8-4.3-.5-.5-1-.9-1.7-1.2,0,.1.1.2.1.4s0,.3-.2.4l-1,.9c1.5.6,2.5,2.1,2.5,3.8s-.2,1.5-.6,2.1l-.8-.5c-.1,0-.3,0-.3.2l.6,2.7c0,.1.1.2.2.1l2.7-.8c.2,0,.2-.2,0-.3Z"/>
  </g>
</svg>